<svg width="107" height="109" viewBox="0 0 107 109" fill="none" xmlns="http://www.w3.org/2000/svg">
<path d="M79.623 40.6408H27.377C25.0781 40.6408 23.1973 38.7248 23.1973 36.383C23.1973 34.0412 25.0781 32.1252 27.377 32.1252H79.623C81.9219 32.1252 83.8027 34.0412 83.8027 36.383C83.8027 38.7248 81.9219 40.6408 79.623 40.6408Z" fill="#D4CCB6"/>
<path d="M79.623 76.8748H27.377C25.0781 76.8748 23.1973 74.9588 23.1973 72.617C23.1973 70.2752 25.0781 68.3592 27.377 68.3592H79.623C81.9219 68.3592 83.8027 70.2752 83.8027 72.617C83.8027 74.9588 81.9219 76.8748 79.623 76.8748Z" fill="#D4CCB6"/>
<path d="M79.623 58.7578H27.377C25.0781 58.7578 23.1973 56.8418 23.1973 54.5C23.1973 52.1582 25.0781 50.2422 27.377 50.2422H79.623C81.9219 50.2422 83.8027 52.1582 83.8027 54.5C83.8027 56.8418 81.9219 58.7578 79.623 58.7578Z" fill="#D4CCB6"/>
</svg>
