<svg width="154" height="160" viewBox="0 0 154 160" fill="none" xmlns="http://www.w3.org/2000/svg">
<path d="M55.4912 94.3937L59.2319 74.1942C56.9875 69.3314 55.8653 64.0944 55.8653 58.4835C55.8653 37.5358 73.0723 20.3289 94.0199 20.3289C114.968 20.3289 132.175 37.5358 132.175 58.4835C132.175 79.4311 114.968 96.6381 94.0199 96.6381C86.5386 96.6381 79.8054 94.3937 73.8204 90.6531L55.4912 94.3937Z" stroke="#D4CCB6" stroke-width="4" stroke-miterlimit="10"/>
<path d="M111.975 52.4989H100.753V41.2769C100.753 40.9029 100.379 40.5288 100.005 40.5288H89.5311C89.1571 40.5288 88.783 40.9029 88.783 41.2769V52.4989H77.5611C77.187 52.4989 76.8129 52.8729 76.8129 53.247V63.7208C76.8129 64.0949 77.187 64.469 77.5611 64.469H88.783V75.6909C88.783 76.065 89.1571 76.439 89.5311 76.439H100.005C100.379 76.439 100.753 76.065 100.753 75.6909V64.469H111.975C112.349 64.469 112.723 64.0949 112.723 63.7208V53.247C112.723 52.8729 112.349 52.4989 111.975 52.4989Z" stroke="#D4CCB6" stroke-width="4" stroke-miterlimit="10"/>
<path d="M94.7681 103.746V150.13C94.7681 154.618 91.4015 157.985 86.9127 157.985H9.85536C5.36658 157.985 2 154.618 2 150.13V9.85536C2 5.36658 5.36658 2 9.85536 2H86.9127C91.4015 2 94.7681 5.36658 94.7681 9.85536V14.7182" stroke="#D4CCB6" stroke-width="4" stroke-miterlimit="10"/>
<path d="M2 25.5662H60.7282" stroke="#D4CCB6" stroke-width="4" stroke-miterlimit="10"/>
<path d="M33.4215 14.3445H63.3467" stroke="#D4CCB6" stroke-width="4" stroke-miterlimit="10"/>
<path d="M2 134.418H94.7681" stroke="#D4CCB6" stroke-width="4" stroke-miterlimit="10"/>
<path d="M117.96 7.9856C124.693 10.604 130.304 14.7188 135.541 19.9557C140.404 24.8185 144.519 30.8036 147.511 37.5367C150.13 44.2699 152 51.3771 152 58.8584C152 66.3397 150.504 73.821 147.511 80.1801C144.893 86.9133 140.778 92.5243 135.541 97.7612C130.678 102.624 124.693 106.739 117.96 109.731" stroke="#D4CCB6" stroke-width="4" stroke-miterlimit="10" stroke-dasharray="2 2"/>
</svg>
