<svg width="169" height="171" viewBox="0 0 169 171" fill="none" xmlns="http://www.w3.org/2000/svg">
<path d="M111.68 20.0391C111.68 10.4687 104.023 2.42969 94.0703 2.42969C89.0938 2.42969 84.8828 4.34375 81.4375 7.78906C78.375 4.72656 73.7813 2.42969 68.8047 2.42969C59.2344 2.42969 51.1953 10.0859 51.1953 20.0391C51.1953 24.6328 53.1094 28.8438 56.1719 32.2891L81.0547 57.1719L106.703 31.9063C107.086 31.5234 107.852 30.7578 107.852 30.7578C110.148 27.3125 111.68 23.8672 111.68 20.0391Z" stroke="#D4CCB6" stroke-width="4" stroke-miterlimit="10"/>
<path d="M116.273 39.9453H162.977C165.273 39.9453 166.805 41.4766 166.805 43.7734V138.711C166.805 141.008 165.273 142.539 162.977 142.539H6.02344C3.72656 142.539 2.19531 141.008 2.19531 138.711V43.7734C2.19531 41.4766 3.72656 39.9453 6.02344 39.9453H44.3047" stroke="#D4CCB6" stroke-width="4" stroke-miterlimit="10"/>
<path d="M2.19531 120.336H166.805" stroke="#D4CCB6" stroke-width="4" stroke-miterlimit="10"/>
<path d="M43.5391 140.242V168.57" stroke="#D4CCB6" stroke-width="4" stroke-miterlimit="10"/>
<path d="M123.93 140.242V168.57" stroke="#D4CCB6" stroke-width="4" stroke-miterlimit="10"/>
<path d="M28.9922 168.57H138.859" stroke="#D4CCB6" stroke-width="4" stroke-miterlimit="10"/>
<path d="M11.7656 80.9063H34.7344L45.0703 57.9375L55.0234 100.047L68.0391 69.8047L71.8672 81.2891H94.0703L102.109 56.4062L112.445 100.047L121.25 69.8047L124.313 80.9063H155.32" stroke="#D4CCB6" stroke-width="4" stroke-miterlimit="10"/>
</svg>
