<svg width="184" height="172" viewBox="0 0 184 172" fill="none" xmlns="http://www.w3.org/2000/svg">
<path d="M43.2477 55.5342V137.591C43.2477 145.05 37.1044 151.194 29.6447 151.194C22.185 151.194 16.0418 145.05 16.0418 137.591V55.5342H43.2477Z" stroke="#D4CCB6" stroke-width="4" stroke-miterlimit="10"/>
<path d="M43.2477 55.5342V137.591C43.2477 145.05 37.1044 151.194 29.6447 151.194C22.185 151.194 16.0418 145.05 16.0418 137.591V55.5342" stroke="#D4CCB6" stroke-width="4" stroke-miterlimit="10"/>
<path d="M6.82686 53.7791H52.0238" stroke="#D4CCB6" stroke-width="4" stroke-miterlimit="10"/>
<path d="M105.558 55.0955V137.152C105.558 144.612 99.4147 150.755 91.955 150.755C84.4953 150.755 78.352 144.612 78.352 137.152V55.0955H105.558Z" stroke="#D4CCB6" stroke-width="4" stroke-miterlimit="10"/>
<path d="M105.558 55.0955V137.152C105.558 144.612 99.4147 150.755 91.955 150.755C84.4953 150.755 78.352 144.612 78.352 137.152V55.0955" stroke="#D4CCB6" stroke-width="4" stroke-miterlimit="10"/>
<path d="M69.5759 53.3401H114.773" stroke="#D4CCB6" stroke-width="4" stroke-miterlimit="10"/>
<path d="M168.307 54.6567V137.152C168.307 144.612 162.164 150.755 154.704 150.755C147.244 150.755 141.101 144.612 141.101 137.152V54.6567H168.307Z" stroke="#D4CCB6" stroke-width="4" stroke-miterlimit="10"/>
<path d="M168.307 54.6567V137.152C168.307 144.612 162.164 150.755 154.704 150.755C147.244 150.755 141.101 144.612 141.101 137.152V54.6567" stroke="#D4CCB6" stroke-width="4" stroke-miterlimit="10"/>
<path d="M131.886 52.9014H177.522" stroke="#D4CCB6" stroke-width="4" stroke-miterlimit="10"/>
<path d="M10.7761 98.5369H2V169.623H181.91V98.5369H174.45" stroke="#D4CCB6" stroke-width="4" stroke-miterlimit="10"/>
<path d="M49.3909 98.5369H72.6476" stroke="#D4CCB6" stroke-width="4" stroke-miterlimit="10"/>
<path d="M110.824 98.5369H135.835" stroke="#D4CCB6" stroke-width="4" stroke-miterlimit="10"/>
<path d="M28.7671 45.8805V33.1551C28.7671 16.0418 42.8089 2 59.9222 2C77.0356 2 91.0774 16.0418 91.0774 33.1551V45.8805" stroke="#D4CCB6" stroke-width="4" stroke-miterlimit="10"/>
<path d="M91.955 45.8805V33.1551C91.955 16.0418 105.997 2 123.11 2C140.224 2 154.265 16.0418 154.265 33.1551V45.8805" stroke="#D4CCB6" stroke-width="4" stroke-miterlimit="10"/>
<path d="M15.603 125.304H43.2477" stroke="#D4CCB6" stroke-width="4" stroke-miterlimit="10"/>
<path d="M80.1073 107.752H107.313" stroke="#D4CCB6" stroke-width="4" stroke-miterlimit="10"/>
<path d="M142.418 117.844H170.062" stroke="#D4CCB6" stroke-width="4" stroke-miterlimit="10"/>
</svg>
