<svg width="175" height="164" viewBox="0 0 175 164" fill="none" xmlns="http://www.w3.org/2000/svg">
<path d="M73.8696 129.282C73.8696 145.804 70.9783 152.826 54.8696 157.369C40.8261 161.087 2 167.695 2 151.174C2 123.087 9.02174 94.1738 18.5217 79.3042C27.1957 65.6738 45.7826 52.8694 56.5217 52.8694C73.8696 52.4564 73.8696 64.8477 73.8696 81.3694V129.282Z" stroke="#D4CCB6" stroke-width="4" stroke-miterlimit="10"/>
<path d="M101.13 129.282C101.13 145.804 104.022 152.826 120.13 157.369C134.174 161.087 173 167.695 173 151.174C173 123.087 165.978 94.1738 156.478 79.3042C147.804 65.6738 129.217 52.8694 118.478 52.8694C101.13 52.4564 101.13 64.8477 101.13 81.3694V129.282Z" stroke="#D4CCB6" stroke-width="4" stroke-miterlimit="10"/>
<path d="M86.6739 0V61.9565" stroke="#D4CCB6" stroke-width="4" stroke-miterlimit="10"/>
<path d="M86.6739 61.9565L139.13 114.826" stroke="#D4CCB6" stroke-width="4" stroke-miterlimit="10"/>
<path d="M123.435 118.544L120.957 97.0654" stroke="#D4CCB6" stroke-width="4" stroke-miterlimit="10"/>
<path d="M142.435 99.5437L120.957 97.0654" stroke="#D4CCB6" stroke-width="4" stroke-miterlimit="10"/>
<path d="M86.2609 60.3042L33.8044 112.761" stroke="#D4CCB6" stroke-width="4" stroke-miterlimit="10"/>
<path d="M49.5 116.478L51.9783 95.4131" stroke="#D4CCB6" stroke-width="4" stroke-miterlimit="10"/>
<path d="M30.5 97.4783L51.9783 95.4131" stroke="#D4CCB6" stroke-width="4" stroke-miterlimit="10"/>
</svg>
