<svg width="134" height="151" viewBox="0 0 134 151" fill="none" xmlns="http://www.w3.org/2000/svg">
<path d="M69.3698 148.589H14.1875V59.2136" stroke="#D4CCB6" stroke-width="4" stroke-miterlimit="10"/>
<path d="M98.1458 59.2136V118.797" stroke="#D4CCB6" stroke-width="4" stroke-miterlimit="10"/>
<path d="M83.5886 19.9426H109.995C110.333 19.9426 110.672 20.2812 110.672 20.6197V52.4426C110.672 52.7812 110.333 53.1197 109.995 53.1197H2.67708C2.33854 53.1197 2 52.7812 2 52.4426V20.6197C2 20.2812 2.33854 19.9426 2.67708 19.9426H53.1198" stroke="#D4CCB6" stroke-width="4" stroke-miterlimit="10"/>
<path d="M92.3906 19.9427C92.3906 10.125 84.2656 2 74.4479 2H37.8854C28.0677 2 19.9427 10.125 19.9427 19.9427" stroke="#D4CCB6" stroke-width="4" stroke-miterlimit="10"/>
<path d="M15.5417 27.729V42.9634" stroke="#D4CCB6" stroke-width="4" stroke-miterlimit="10"/>
<path d="M32.1302 27.729V42.9634" stroke="#D4CCB6" stroke-width="4" stroke-miterlimit="10"/>
<path d="M49.0573 27.729V42.9634" stroke="#D4CCB6" stroke-width="4" stroke-miterlimit="10"/>
<path d="M65.9844 27.729V42.9634" stroke="#D4CCB6" stroke-width="4" stroke-miterlimit="10"/>
<path d="M82.5729 27.729V42.9634" stroke="#D4CCB6" stroke-width="4" stroke-miterlimit="10"/>
<path d="M99.5 27.729V42.9634" stroke="#D4CCB6" stroke-width="4" stroke-miterlimit="10"/>
<path d="M14.1875 74.1094H56.1667V127.599H14.1875" stroke="#D4CCB6" stroke-width="4" stroke-miterlimit="10"/>
<path d="M15.5417 92.729H38.5625" stroke="#D4CCB6" stroke-width="4" stroke-miterlimit="10"/>
<path d="M15.5417 106.271H27.0521" stroke="#D4CCB6" stroke-width="4" stroke-miterlimit="10"/>
<path d="M121.505 148.588H85.2812C79.526 148.588 74.7864 143.849 74.7864 138.094C74.7864 132.338 79.526 127.599 85.2812 127.599H121.505C127.26 127.599 132 132.338 132 138.094C132 143.849 127.26 148.588 121.505 148.588Z" stroke="#D4CCB6" stroke-width="4" stroke-miterlimit="10"/>
<path d="M103.224 127.599V148.588" stroke="#D4CCB6" stroke-width="4" stroke-miterlimit="10"/>
</svg>
