<svg width="267" height="59" viewBox="0 0 267 59" fill="none" xmlns="http://www.w3.org/2000/svg">
<path d="M234.574 29.6697C234.574 22.433 229.067 16.5791 221.289 16.5791C213.665 16.5791 208.236 22.2081 208.236 29.9426C208.236 37.7159 213.819 43.3835 221.829 43.3835C226.911 43.3835 231.185 41.1231 233.842 36.5285L228.452 34.0394C227.182 36.3367 224.408 37.8302 221.829 37.8302C218.556 37.8302 214.783 35.3798 214.551 31.9726H234.381C234.508 31.2114 234.572 30.4412 234.574 29.6697ZM214.666 27.4572C215.13 24.0113 217.516 21.7527 221.328 21.7527C225.101 21.7527 227.412 23.9652 227.719 27.4572H214.666Z" fill="#29626C"/>
<path d="M160.346 16.5732C152.529 16.5732 146.985 22.1653 146.985 30.0529C146.985 37.863 152.529 43.3777 160.424 43.3777C168.356 43.3777 173.9 37.863 173.9 30.1672C173.9 22.2409 168.203 16.5732 160.346 16.5732ZM160.424 37.5182C156.495 37.5182 154.07 34.6088 154.07 30.0898C154.07 25.4951 156.534 22.3552 160.424 22.3552C164.351 22.3552 166.816 25.4564 166.816 30.0898C166.816 34.6475 164.39 37.5182 160.424 37.5182Z" fill="#29626C"/>
<path d="M132.512 16.581C129.31 16.581 126.898 17.6688 124.485 20.3662H123.694C122.073 17.9306 119.429 16.581 116.462 16.581C114.981 16.5666 113.518 16.9023 112.192 17.5604C110.867 18.2184 109.718 19.1801 108.84 20.3662H108.048L108.009 20.3294V17.1065H101.382V42.8157H108.543V29.585C108.543 25.313 110.353 22.8018 113.481 22.8018C116.383 22.8018 118.266 24.9387 118.266 28.1985V42.8157H125.464V29.585C125.464 25.3444 127.274 22.8018 130.441 22.8018C133.304 22.8018 135.15 24.9387 135.15 28.2372V42.8157H142.35V27.3743C142.35 20.6668 138.731 16.581 132.512 16.581Z" fill="#29626C"/>
<path d="M250.498 33.899H249.986C249.986 33.4417 246.864 25.2997 244.817 20.2552L243.537 17.1006H236.323L246.558 42.9002L242.525 52.731H249.689L264.428 17.1098H257.21L256.033 19.8072L252.041 29.6289C250.915 32.3724 250.453 33.6446 250.498 33.899Z" fill="#29626C"/>
<path d="M193.76 16.5811C190.556 16.5811 187.805 17.9676 185.958 20.4419H185.203L185.129 20.405V17.1065H178.499V42.8158H185.659V29.6606C185.659 25.4642 187.699 22.8387 191.049 22.8387C194.177 22.8387 196.477 25.1619 196.477 28.8346V42.8139H203.637V27.3006C203.637 21.0042 199.491 16.5811 193.76 16.5811Z" fill="#29626C"/>
<path d="M52.7491 1.84375C37.2779 1.84375 24.8457 14.2891 24.8457 29.5C24.8457 44.8363 37.4003 57.1563 52.7453 57.1563C68.0904 57.1563 80.6561 44.7109 80.6561 29.5C80.6561 14.2891 68.0941 1.84375 52.7491 1.84375ZM52.7491 39.8084C47.0419 39.8084 42.3509 35.1566 42.3509 29.5C42.3509 23.8434 47.0419 19.1916 52.7491 19.1916C58.4562 19.1916 63.1491 23.8434 63.1491 29.5C63.0211 35.1566 58.4562 39.8084 52.7491 39.8084Z" fill="#29626C"/>
<path d="M24.8458 9.87891V50.1058H14.9594L2.27686 9.87891H24.8458Z" fill="#29626C"/>
</svg>
