<svg width="118" height="84" viewBox="0 0 118 84" fill="none" xmlns="http://www.w3.org/2000/svg">
<g clip-path="url(#clip0_306_2)">
<path d="M21.3716 83.8134V78.2321C21.3716 76.0917 19.9532 74.6969 17.625 74.6969C16.4022 74.6969 15.0939 75.0697 14.1817 76.2691C13.4725 75.2449 12.4698 74.6969 10.9413 74.6969C10.373 74.6744 9.80753 74.7815 9.2954 75.0089C8.78326 75.2362 8.34048 75.5766 8.00667 75.9996V74.8766H6.08203V83.8066H8.00667V78.697C8.00667 77.1248 9.01913 76.3724 10.4375 76.3724C11.856 76.3724 12.6654 77.2102 12.6654 78.697V83.8134H14.5901V78.697C14.5901 77.1248 15.6025 76.3724 17.021 76.3724C18.4394 76.3724 19.2488 77.2102 19.2488 78.697V83.8134H21.3716ZM52.9729 74.9754H49.4269V72.2802H47.5071V74.9754H45.4822V76.5476H47.5071V80.7431C47.5071 82.7892 48.3166 83.9998 50.7475 83.9998C51.6684 83.9822 52.5708 83.7586 53.3764 83.3485L52.7675 81.7763C52.2211 82.0899 51.5874 82.2514 50.9431 82.2412C49.9307 82.2412 49.4244 81.6819 49.4244 80.7521V76.4757H52.9705V74.9866L52.9729 74.9754ZM71.0015 74.6969C70.4773 74.6862 69.959 74.8006 69.4973 75.0289C69.0356 75.2573 68.6464 75.5917 68.3676 75.9996V74.8766H66.443V83.8066H68.3676V78.7913C68.3676 77.3023 69.1771 76.3724 70.4952 76.3724C70.94 76.389 71.3814 76.4515 71.811 76.5588L72.4199 74.8833C71.9555 74.7758 71.4801 74.7133 71.0015 74.6969ZM43.7557 75.6268C42.7432 74.9754 41.3248 74.6969 39.8061 74.6969C37.3752 74.6969 35.8565 75.7211 35.8565 77.4887C35.8565 78.9778 36.9717 79.8133 39.0969 80.094L40.1093 80.1861C41.2245 80.3725 41.9337 80.7454 41.9337 81.2103C41.9337 81.8616 41.1242 82.3333 39.6031 82.3333C38.4416 82.3552 37.304 82.0288 36.3628 81.4034L35.3503 82.7982C36.7687 83.728 38.4904 83.9212 39.5077 83.9212C42.3446 83.9212 43.8633 82.7128 43.8633 81.0373C43.8633 79.4651 42.6405 78.7127 40.5202 78.432L39.5077 78.3399C38.5956 78.2478 37.7959 77.9671 37.7959 77.4101C37.7959 76.7587 38.6053 76.2871 39.7205 76.2871C40.9433 76.2871 42.1514 76.752 42.7603 77.0305L43.7557 75.6268ZM73.1291 79.3484C73.1291 82.0435 75.0537 83.9998 78.1938 83.9998C79.6122 83.9998 80.6247 83.7213 81.6372 82.9756L80.6247 81.5809C79.9078 82.114 79.0159 82.4092 78.0936 82.4186C76.3817 82.4186 75.0537 81.2103 75.0537 79.4427C75.0537 77.6751 76.3646 76.4757 78.0936 76.4757C79.0159 76.4851 79.9078 76.7803 80.6247 77.3135L81.6372 75.9187C80.6247 75.1753 79.6122 74.8946 78.1938 74.8946C75.154 74.7081 73.1291 76.6622 73.1291 79.3596V79.3484ZM59.5563 74.6969C56.7195 74.6969 54.7948 76.5566 54.7948 79.3484C54.7948 82.1401 56.8198 83.9998 59.7569 83.9998C61.1857 84.0275 62.5811 83.6006 63.7064 82.7915L62.694 81.4888C61.8801 82.068 60.8864 82.3937 59.8571 82.4186C58.5414 82.4186 57.123 81.6752 56.9225 80.094H64.1148V79.3506C64.1148 76.5588 62.2904 74.6992 59.5563 74.6992V74.6969ZM59.4561 76.3724C60.8745 76.3724 61.8869 77.2102 61.9872 78.6049H56.7219C57.0252 77.3023 57.9447 76.3724 59.4561 76.3724ZM33.2227 79.3484V74.8833H31.298V76.0063C30.5888 75.1686 29.5862 74.7036 28.158 74.7036C25.4238 74.7036 23.3965 76.6577 23.3965 79.3551C23.3965 82.0525 25.4214 84.0065 28.158 84.0065C29.5764 84.0065 30.5888 83.5416 31.298 82.7039V83.8269H33.2227V79.3484ZM25.4238 79.3484C25.4238 77.6728 26.539 76.3724 28.4637 76.3724C30.288 76.3724 31.3983 77.6751 31.3983 79.3484C31.3983 81.116 30.1755 82.3243 28.4637 82.3243C26.539 82.4164 25.4238 81.0216 25.4238 79.3484ZM100.277 74.6969C99.7529 74.6862 99.2346 74.8006 98.7729 75.0289C98.3113 75.2573 97.922 75.5917 97.6432 75.9996V74.8766H95.7186V83.8066H97.6408V78.7913C97.6408 77.3023 98.4503 76.3724 99.7684 76.3724C100.213 76.389 100.655 76.4515 101.084 76.5588L101.693 74.8833C101.229 74.7758 100.753 74.7133 100.275 74.6969H100.277ZM92.7815 79.3484V74.8833H90.8569V76.0063C90.1477 75.1686 89.145 74.7036 87.7168 74.7036C84.9827 74.7036 82.9553 76.6577 82.9553 79.3551C82.9553 82.0525 84.9802 84.0065 87.7168 84.0065C89.1352 84.0065 90.1477 83.5416 90.8569 82.7039V83.8269H92.7815V79.3484ZM84.9827 79.3484C84.9827 77.6728 86.0978 76.3724 88.0225 76.3724C89.8468 76.3724 90.9571 77.6751 90.9571 79.3484C90.9571 81.116 89.7343 82.3243 88.0225 82.3243C86.0978 82.4164 84.9827 81.0216 84.9827 79.3484ZM112.331 79.3484V71.3481H110.407V75.9996C109.697 75.1618 108.695 74.6969 107.266 74.6969C104.532 74.6969 102.505 76.6509 102.505 79.3484C102.505 82.0458 104.53 83.9998 107.266 83.9998C108.685 83.9998 109.697 83.5349 110.407 82.6971V83.8201H112.331V79.3484ZM104.532 79.3484C104.532 77.6728 105.648 76.3724 107.572 76.3724C109.397 76.3724 110.507 77.6751 110.507 79.3484C110.507 81.116 109.284 82.3243 107.572 82.3243C105.645 82.4186 104.53 81.0239 104.53 79.3484H104.532Z" fill="#29626C"/>
<path d="M76.6752 7.1626H41.5278V59.8131H76.6752V7.1626Z" fill="#29626C"/>
<path d="M45.0738 33.4877C45.075 28.4227 46.3239 23.4236 48.7269 18.8647C51.1299 14.3057 54.6248 10.3052 58.9498 7.16248C53.571 3.27852 47.1108 0.862855 40.3077 0.191616C33.5046 -0.479622 26.6331 0.620655 20.4788 3.36667C14.3244 6.11269 9.13547 10.3936 5.50518 15.7201C1.87489 21.0467 -0.050293 27.2038 -0.050293 33.4877C-0.050293 39.7716 1.87489 45.9288 5.50518 51.2553C9.13547 56.5818 14.3244 60.8628 20.4788 63.6088C26.6331 66.3548 33.5046 67.4551 40.3077 66.7838C47.1108 66.1126 53.571 63.6969 58.9498 59.813C54.6248 56.6703 51.1299 52.6697 48.7269 48.1108C46.3239 43.5519 45.075 38.5527 45.0738 33.4877Z" fill="#1C464D"/>
<path d="M118.003 33.4876C118.008 39.7669 116.088 45.9208 112.464 51.2453C108.839 56.5699 103.656 60.8501 97.5078 63.5964C91.3592 66.3428 84.493 67.4444 77.6947 66.7753C70.8963 66.1062 64.4403 63.6934 59.0649 59.8128C63.391 56.6709 66.8866 52.6705 69.2898 48.1114C71.693 43.5523 72.9414 38.5528 72.9414 33.4876C72.9414 28.4223 71.693 23.4228 69.2898 18.8637C66.8866 14.3046 63.391 10.3042 59.0649 7.16231C64.4403 3.28171 70.8963 0.868876 77.6947 0.199764C84.493 -0.469347 91.3592 0.632281 97.5078 3.37865C103.656 6.12503 108.839 10.4053 112.464 15.7298C116.088 21.0543 118.008 27.2082 118.003 33.4876Z" fill="#1C464D"/>
</g>
<defs>
<clipPath id="clip0_306_2">
<rect width="118" height="84" fill="white"/>
</clipPath>
</defs>
</svg>
