<svg width="230" height="220" viewBox="0 0 230 220" fill="none" xmlns="http://www.w3.org/2000/svg">
<path d="M225.623 17.9875C224.189 17.9875 222.755 19.0214 222.755 20.7445V48.3137C222.755 49.6922 223.83 51.0706 225.623 51.0706C227.415 51.0706 228.49 50.0368 228.49 48.3137V20.7445C228.49 19.0214 227.056 17.9875 225.623 17.9875Z" fill="#D4CCB6"/>
<path d="M225.623 59.3416C224.189 59.3416 222.755 60.3754 222.755 62.0985V65.5446C222.755 66.9231 223.83 68.3016 225.623 68.3016C227.415 68.3016 228.49 67.2677 228.49 65.5446V62.0985C228.49 60.3754 227.056 59.3416 225.623 59.3416Z" fill="#D4CCB6"/>
<path d="M57.1458 214.418H24.8843C23.4504 214.418 22.0166 215.452 22.0166 217.175C22.0166 218.898 23.092 219.932 24.8843 219.932H57.1458C58.5797 219.932 60.0135 218.898 60.0135 217.175C60.0135 215.452 58.5797 214.418 57.1458 214.418Z" fill="#D4CCB6"/>
<path d="M10.5457 214.418H3.37648C1.94264 214.418 0.508789 215.452 0.508789 217.175C0.508789 218.898 1.58417 219.932 3.37648 219.932H10.5457C11.9796 219.932 13.4134 218.898 13.4134 217.175C13.4134 215.452 11.9796 214.418 10.5457 214.418Z" fill="#D4CCB6"/>
<path d="M24.1673 203.046V198.566H28.8273C30.2612 198.566 31.695 197.532 31.695 195.809C31.695 194.086 30.6196 193.052 28.8273 193.052H24.1673V188.572C24.1673 187.194 23.0919 185.815 21.2996 185.815C19.5073 185.815 18.4319 186.849 18.4319 188.572V193.052H14.1304C12.6965 193.052 11.2627 194.086 11.2627 195.809C11.2627 197.532 12.3381 198.566 14.1304 198.566H18.7904V203.046C18.7904 204.425 19.8658 205.803 21.6581 205.803C23.4504 205.803 24.1673 204.425 24.1673 203.046Z" fill="#D4CCB6"/>
<path d="M186.192 12.8185H190.852V17.2985C190.852 18.677 191.927 20.0554 193.72 20.0554C195.512 20.0554 196.587 19.0216 196.587 17.2985V12.8185H201.247C202.681 12.8185 204.115 11.7847 204.115 10.0616C204.115 8.33851 203.04 7.30466 201.247 7.30466H196.587V3.16928C196.587 1.79082 195.512 0.412354 193.72 0.412354C191.927 0.412354 190.852 1.4462 190.852 3.16928V7.64928H186.192C184.758 7.64928 183.324 8.68312 183.324 10.4062C183.324 12.1293 184.758 12.8185 186.192 12.8185Z" fill="#D4CCB6"/>
<path d="M114.499 66.2339C89.4069 66.2339 68.9746 85.877 68.9746 110.345C68.9746 134.812 89.4069 154.455 114.499 154.455C139.592 154.455 160.382 134.812 160.382 110.345C160.382 85.877 139.592 66.2339 114.499 66.2339ZM114.499 148.942C92.2746 148.942 74.3515 131.711 74.3515 110C74.3515 88.2893 92.2746 71.0585 114.499 71.0585C136.724 71.0585 155.005 88.2893 155.005 110C155.005 131.711 136.724 148.942 114.499 148.942Z" fill="#D4CCB6"/>
<path d="M118.084 16.9537C118.084 14.886 116.65 13.5076 114.5 13.5076C112.349 13.5076 110.915 14.886 110.915 16.9537C110.915 19.0214 112.349 20.3999 114.5 20.3999C116.65 20.3999 118.084 19.0214 118.084 16.9537Z" fill="#D4CCB6"/>
<path d="M114.5 206.492C116.479 206.492 118.084 204.949 118.084 203.046C118.084 201.143 116.479 199.6 114.5 199.6C112.52 199.6 110.915 201.143 110.915 203.046C110.915 204.949 112.52 206.492 114.5 206.492Z" fill="#D4CCB6"/>
<path d="M64.3152 26.6031C62.5229 27.637 62.1644 29.7046 62.8813 31.4277C63.9567 33.1508 66.1075 33.4954 67.8998 32.8062C69.6921 31.7723 70.0506 29.7046 69.3336 27.9816C68.2583 25.9139 66.1075 25.5693 64.3152 26.6031Z" fill="#D4CCB6"/>
<path d="M164.684 193.397C166.476 192.363 166.835 190.295 166.118 188.572C165.401 186.849 162.892 186.504 161.099 187.538C159.307 188.572 158.949 190.64 159.666 192.363C160.741 194.086 162.892 194.431 164.684 193.397Z" fill="#D4CCB6"/>
<path d="M32.4115 60.3754C30.6192 59.3416 28.4684 60.0308 27.3931 61.7539C26.6761 63.4769 27.0346 65.5446 28.8269 66.5785C30.6192 67.6123 32.77 66.9231 33.8454 65.2C34.9207 63.4769 34.2038 61.4092 32.4115 60.3754Z" fill="#D4CCB6"/>
<path d="M196.588 159.625C198.38 160.658 200.531 159.969 201.606 158.246C202.681 156.523 201.964 154.455 200.172 153.422C198.38 152.388 196.229 153.077 195.154 154.8C194.078 156.523 194.795 158.591 196.588 159.625Z" fill="#D4CCB6"/>
<path d="M17.7155 106.554C15.5647 106.554 14.1309 107.932 14.1309 110C14.1309 112.068 15.5647 113.446 17.7155 113.446C19.8662 113.446 21.3001 112.068 21.3001 110C21.3001 107.932 19.8662 106.554 17.7155 106.554Z" fill="#D4CCB6"/>
<path d="M211.284 93.803C202.681 93.803 195.87 99.6615 194.437 107.588H174.363C174.004 98.9722 171.495 90.7015 167.552 83.4645L185.117 73.8153C187.267 76.5722 190.493 78.2953 193.72 79.3292C195.153 79.6738 196.587 80.0184 198.021 80.0184C200.889 80.0184 203.757 79.3292 206.624 77.9507C210.567 75.883 213.435 72.0922 214.51 67.9569C215.586 63.8215 215.227 59.3415 212.718 55.5507C210.567 51.7599 206.624 49.003 202.323 47.9692C198.021 46.9353 193.361 47.2799 189.418 49.6922C185.475 51.7599 182.607 55.5507 181.532 59.6861C180.457 63.1322 180.815 66.5784 182.249 69.6799L164.684 79.3292C160.024 72.4369 153.93 66.2338 146.403 61.7538L156.44 45.2122C158.232 45.9015 160.383 46.2461 162.533 46.2461C163.967 46.2461 165.401 45.9015 166.835 45.5569C171.137 44.523 175.08 41.7661 177.23 37.9753C179.381 34.1846 180.098 29.7046 179.023 25.5692C177.947 21.4338 175.438 17.2984 171.495 15.2307C167.552 13.163 162.892 12.4738 158.59 13.5076C154.289 14.5415 150.346 17.2984 148.195 21.0892C143.893 27.9815 146.044 36.9415 152.138 41.7661L142.101 58.6522C134.573 54.8615 125.97 52.7938 117.009 52.1045V32.8061C125.253 31.4276 131.347 24.8799 131.347 16.6092C131.347 7.64917 123.82 0.067627 114.141 0.067627C104.463 0.067627 96.935 7.30455 96.935 16.6092C96.935 24.8799 103.029 31.4276 111.273 32.8061V52.1045C102.312 52.4492 93.7089 54.8615 86.1812 58.6522L76.8612 42.1107C83.3135 37.2861 85.1058 28.3261 80.8042 21.4338C78.6535 17.643 74.7104 14.8861 70.4089 13.8522C66.1073 12.4738 61.4473 13.163 57.5042 15.2307C53.5612 17.2984 50.6935 21.0892 49.6181 25.2246C48.5427 29.3599 48.9012 33.8399 51.4104 37.6307C53.5612 41.4215 57.5042 44.1784 61.8058 45.2122C63.2396 45.5569 64.6735 45.9015 66.1073 45.9015C68.2581 45.9015 70.0504 45.5569 72.2012 44.8676L82.2381 61.4092C75.0689 65.8892 68.6165 71.7476 63.9565 78.9845L46.3919 69.3353C49.2596 62.0984 46.3919 53.483 39.2227 49.3476C30.9781 44.8676 20.5827 47.6246 15.9227 55.2061C13.7719 58.9969 13.055 63.4769 14.1304 67.6122C15.2058 71.7476 18.0735 75.5384 22.0165 77.6061C24.5258 78.9846 27.7519 79.6738 30.6196 79.6738C35.6381 79.6738 40.6565 77.6061 43.8827 73.4707L61.0889 83.1199C57.1458 90.3569 54.995 98.6276 54.2781 107.243H34.2042C32.7704 99.3169 25.9596 93.4584 17.3565 93.4584C8.03655 93.4584 0.150391 100.695 0.150391 110C0.150391 119.305 7.67808 126.541 17.3565 126.541C25.9596 126.541 32.7704 120.683 34.2042 112.757H54.2781C54.6365 121.372 57.1458 129.643 61.0889 136.88L43.8827 146.185C38.8642 139.981 29.5442 138.258 22.375 142.394C18.4319 144.461 15.5642 148.252 14.4889 152.388C13.4135 156.523 13.7719 161.003 15.9227 164.794C18.0735 168.585 22.0165 171.341 26.3181 172.375C27.7519 172.72 29.1858 173.065 30.6196 173.065C33.4873 173.065 36.355 172.375 39.2227 170.997C46.3919 166.861 49.6181 158.246 46.3919 151.009L63.9565 141.36C68.6165 148.252 74.7104 154.455 82.2381 158.935L72.2012 175.821C68.975 174.443 65.3904 174.443 61.8058 175.132C57.5042 176.166 53.5612 178.923 51.4104 182.714C49.2596 186.505 48.5427 190.985 49.6181 195.12C50.6935 199.255 53.5612 203.046 57.5042 205.114C60.0135 206.492 62.8812 207.181 66.1073 207.181C67.5412 207.181 68.975 206.837 70.4089 206.492C74.7104 205.458 78.6535 202.701 80.8042 198.911C82.955 195.12 83.6719 190.64 82.5965 186.505C81.5212 183.058 79.7289 180.301 76.8612 178.234L86.8981 161.348C94.4258 165.138 103.029 167.206 111.99 167.895V187.194C103.746 188.572 97.6519 195.12 97.6519 203.391C97.6519 212.351 105.18 219.932 114.858 219.932C124.537 219.932 132.064 212.695 132.064 203.391C132.064 195.12 125.97 188.572 117.726 187.194V167.895C126.687 167.551 135.29 165.138 142.818 161.348L152.855 178.234C149.987 180.301 148.195 183.403 147.12 186.505C146.044 190.64 146.403 195.12 148.912 198.911C151.063 202.701 155.006 205.458 159.307 206.492C160.741 206.837 162.175 207.181 163.609 207.181C166.477 207.181 169.344 206.492 172.212 205.114C176.155 203.046 179.023 199.255 180.098 195.12C181.173 190.985 180.815 186.505 178.306 182.714C176.155 178.923 172.212 176.166 167.91 175.132C164.326 174.098 160.741 174.443 157.515 175.821L147.478 158.935C154.647 154.455 161.1 148.597 165.76 141.36L183.324 151.009C181.89 154.111 181.89 157.557 182.607 161.003C183.683 165.138 186.55 168.585 190.493 170.997C193.003 172.375 195.87 173.065 199.097 173.065C200.53 173.065 201.964 172.72 203.398 172.375C207.7 171.341 211.284 168.585 213.793 164.794C216.303 161.003 216.661 156.523 215.586 152.388C214.51 148.252 211.643 144.461 207.7 142.394C203.757 140.326 199.097 139.637 194.795 140.671C191.21 141.705 188.343 143.428 186.192 146.185L168.627 136.535C172.57 129.298 174.721 121.028 175.438 112.412H195.512C196.946 120.338 203.757 126.197 212.36 126.197C221.68 126.197 229.566 118.96 229.566 109.655C229.566 100.351 220.604 93.803 211.284 93.803ZM192.644 53.8276C194.437 52.7938 196.587 52.4492 198.38 52.4492C202.323 52.4492 206.266 54.5169 208.417 57.963C211.643 63.4769 209.85 70.0245 204.115 73.1261C198.38 76.2276 191.569 74.5046 188.343 68.9907C185.117 63.8215 186.909 56.9292 192.644 53.8276ZM152.855 23.8461C155.006 20.3999 158.949 18.3322 162.892 18.3322C165.043 18.3322 166.835 18.6769 168.627 19.7107C174.363 22.8122 176.155 29.7045 172.929 34.8738C171.495 37.6307 168.986 39.3538 165.76 40.043C162.892 40.7322 159.666 40.3876 156.798 39.0092C151.421 35.9076 149.629 29.0153 152.855 23.8461ZM63.2396 40.3876C60.3719 39.6984 57.8627 37.6307 56.0704 35.2184C52.8442 29.7045 54.6365 23.1569 60.3719 20.0553C62.1642 18.6769 63.9565 18.3322 66.1073 18.3322C70.0504 18.3322 73.9935 20.3999 76.1442 23.8461C79.3704 29.3599 77.5781 35.9076 71.8427 39.0092C69.3335 40.7322 66.1073 41.0769 63.2396 40.3876ZM24.8842 73.1261C19.1489 70.0245 17.3565 63.1322 20.5827 57.963C22.7335 54.5169 26.6765 52.4492 30.6196 52.4492C32.7704 52.4492 34.5627 52.7938 36.355 53.8276C42.0904 56.9292 43.8827 63.8215 40.6565 68.9907C37.4304 74.5046 30.2612 76.2276 24.8842 73.1261ZM36.355 166.172C33.4873 167.551 30.6196 168.24 27.3935 167.206C24.5258 166.517 22.0165 164.449 20.2242 162.037C16.9981 156.523 18.7904 149.975 24.5258 146.874C26.3181 145.84 28.4689 145.495 30.2612 145.495C34.2042 145.495 38.1473 147.563 40.2981 151.009C43.8827 156.178 42.0904 163.071 36.355 166.172ZM76.1442 196.154C72.9181 201.668 65.7489 203.391 60.3719 200.289C54.6365 197.188 52.8442 190.295 56.0704 185.126C58.2212 181.68 62.1642 179.612 66.1073 179.612C68.2581 179.612 70.0504 179.957 71.8427 180.991C77.5781 184.092 79.3704 190.985 76.1442 196.154ZM172.929 185.126C176.155 190.64 174.363 197.188 168.627 200.289C162.892 203.391 156.081 201.668 152.855 196.154C149.629 190.64 151.421 184.092 157.157 180.991C158.949 179.957 161.1 179.612 162.892 179.612C166.835 179.268 170.778 181.335 172.929 185.126ZM198.38 145.495C200.53 145.495 202.323 145.84 204.115 146.874C209.85 149.975 211.643 156.868 208.417 162.037C206.983 164.794 204.473 166.517 201.247 167.206C198.38 167.895 195.153 167.551 192.286 166.172C186.55 163.071 184.758 156.178 187.984 151.009C190.493 147.218 194.437 145.495 198.38 145.495ZM103.029 16.9538C103.029 10.7507 108.406 5.58147 114.858 5.58147C121.31 5.58147 126.687 10.7507 126.687 16.9538C126.687 23.1569 121.31 28.3261 114.858 28.3261C108.406 28.3261 103.029 23.1569 103.029 16.9538ZM17.715 121.372C11.2627 121.372 5.88578 116.203 5.88578 110C5.88578 103.797 11.2627 98.6276 17.715 98.6276C24.1673 98.6276 29.5442 103.797 29.5442 110C29.5442 116.203 24.1673 121.372 17.715 121.372ZM126.329 203.046C126.329 209.249 120.952 214.418 114.5 214.418C108.047 214.418 102.67 209.249 102.67 203.046C102.67 196.843 108.047 191.674 114.5 191.674C120.952 191.674 126.329 196.843 126.329 203.046ZM114.5 162.726C84.3889 162.726 59.655 139.292 59.655 110C59.655 80.7076 84.0304 57.2738 114.5 57.2738C144.969 57.2738 169.344 80.7076 169.344 110C169.344 139.292 144.61 162.726 114.5 162.726ZM211.284 121.372C204.832 121.372 199.455 116.203 199.455 110C199.455 103.797 204.832 98.6276 211.284 98.6276C217.737 98.6276 223.113 103.797 223.113 110C223.113 116.203 217.737 121.372 211.284 121.372Z" fill="#D4CCB6"/>
<path d="M211.284 113.446C213.264 113.446 214.868 111.903 214.868 110C214.868 108.097 213.264 106.554 211.284 106.554C209.304 106.554 207.699 108.097 207.699 110C207.699 111.903 209.304 113.446 211.284 113.446Z" fill="#D4CCB6"/>
<path d="M28.8277 153.421C27.0354 154.455 26.677 156.523 27.7524 158.246C28.8277 159.969 30.9785 160.314 32.7708 159.625C34.5631 158.591 34.9216 156.523 34.2047 154.8C32.7708 153.077 30.6201 152.732 28.8277 153.421Z" fill="#D4CCB6"/>
<path d="M200.172 66.5784C201.965 65.5445 202.323 63.4768 201.606 61.7538C200.531 60.0307 198.38 59.6861 196.588 60.3753C194.795 61.4091 194.437 63.4768 195.154 65.1999C196.229 66.923 198.38 67.2676 200.172 66.5784Z" fill="#D4CCB6"/>
<path d="M67.8997 187.538C66.1074 186.505 63.9566 187.194 62.8812 188.917C61.8059 190.64 62.5228 192.708 64.3151 193.742C66.1074 194.775 68.2582 194.086 69.3335 192.363C70.0505 190.64 69.692 188.572 67.8997 187.538Z" fill="#D4CCB6"/>
<path d="M161.099 32.4614C162.892 33.4953 165.042 32.806 166.118 31.083C167.193 29.3599 166.476 27.2922 164.684 26.2583C162.892 25.5691 160.741 25.9137 159.666 27.6368C158.949 29.3599 159.307 31.4276 161.099 32.4614Z" fill="#D4CCB6"/>
<path d="M116.651 105.864C116.292 105.864 115.934 105.52 115.934 105.175V92.7691C115.934 92.4245 115.934 92.0799 116.292 92.0799C116.651 92.0799 117.009 91.7352 117.009 92.0799C119.16 93.1137 120.952 94.4922 121.311 96.9045L128.121 96.2152C127.404 93.4583 126.329 91.3906 124.537 90.0122C122.386 88.2891 119.877 87.2552 116.292 86.9106C115.934 86.9106 115.575 86.566 115.575 86.2214V83.8091H112.349V86.2214C112.349 86.566 111.991 86.9106 111.632 86.9106C108.048 87.2552 105.18 88.6337 103.029 90.7014C100.878 92.7691 99.8029 95.526 99.8029 98.9722C99.8029 105.864 103.746 110.344 111.991 112.412C112.349 112.412 112.708 112.757 112.708 113.101V126.541C112.708 126.886 112.708 127.231 112.349 127.231C111.991 127.231 111.632 127.575 111.632 127.231C110.198 126.541 109.123 125.508 108.048 124.129C106.972 123.095 106.614 121.717 105.897 119.994L98.7275 120.683C100.161 128.264 104.463 132.055 111.991 133.089C112.349 133.089 112.708 133.434 112.708 133.778V136.535H115.934V133.434C115.934 133.089 116.292 132.744 116.651 132.744C120.594 132.055 124.178 130.677 126.329 128.264C128.838 125.852 129.914 122.751 129.914 118.96C129.914 115.514 128.838 112.757 126.688 110.689C125.254 108.966 122.028 107.243 116.651 105.864ZM113.066 103.797C113.066 104.141 113.066 104.486 112.708 104.486H112.349H111.991C108.764 103.108 106.972 101.04 106.972 97.9383C106.972 96.5599 107.331 95.1814 108.406 94.1475C109.481 93.1137 110.557 92.0799 111.991 91.7352C112.349 91.7352 112.708 91.7352 112.708 91.7352C113.066 91.7352 113.066 92.0799 113.066 92.4245V103.797ZM121.669 125.163C120.594 126.541 118.801 127.231 117.009 127.575C116.651 127.575 116.651 127.575 116.292 127.231C115.934 127.231 115.934 126.886 115.934 126.541V114.135C115.934 113.791 115.934 113.446 116.292 113.446C116.651 113.446 116.651 113.101 117.009 113.446C121.311 114.48 123.461 116.892 123.461 120.338C123.82 122.061 123.103 123.784 121.669 125.163Z" fill="#D4CCB6"/>
</svg>
