<svg width="438" height="438" viewBox="0 0 438 438" fill="none" xmlns="http://www.w3.org/2000/svg">
<g filter="url(#filter0_d_313_784)">
<g filter="url(#filter1_f_313_784)">
<path d="M219 297.84C208.171 297.84 197.586 294.629 188.583 288.613C179.579 282.597 172.561 274.046 168.418 264.042C164.274 254.038 163.189 243.029 165.302 232.409C167.415 221.788 172.629 212.033 180.286 204.376C187.943 196.719 197.698 191.505 208.319 189.392C218.939 187.28 229.948 188.364 239.952 192.508C249.956 196.652 258.507 203.669 264.523 212.673C270.539 221.676 273.75 232.262 273.75 243.09C273.75 257.611 267.982 271.537 257.714 281.804C247.446 292.072 233.521 297.84 219 297.84ZM219 197.465C209.976 197.465 201.155 200.141 193.652 205.154C186.149 210.168 180.301 217.293 176.848 225.63C173.395 233.967 172.491 243.141 174.252 251.991C176.012 260.841 180.357 268.971 186.738 275.352C193.119 281.733 201.249 286.078 210.099 287.838C218.949 289.599 228.123 288.695 236.46 285.242C244.797 281.789 251.922 275.941 256.936 268.438C261.949 260.935 264.625 252.114 264.625 243.09C264.643 237.087 263.476 231.139 261.191 225.588C258.907 220.037 255.549 214.991 251.31 210.74C247.072 206.489 242.036 203.116 236.492 200.814C230.947 198.513 225.003 197.328 219 197.328V197.465Z" fill="#D4CCB6"/>
</g>
<g filter="url(#filter2_f_313_784)">
<path d="M321.383 387.813H116.618C116.003 387.81 115.395 387.684 114.831 387.441C114.266 387.198 113.757 386.843 113.333 386.398C112.912 385.963 112.583 385.448 112.364 384.884C112.144 384.32 112.039 383.718 112.055 383.113C112.756 355.449 124.213 329.148 143.993 309.794C149.094 304.829 155.628 301.594 162.669 300.546C169.711 299.498 176.903 300.69 183.23 303.954C194.28 309.532 206.485 312.438 218.863 312.438C231.241 312.438 243.446 309.532 254.496 303.954C260.823 300.69 268.016 299.498 275.057 300.546C282.098 301.594 288.632 304.829 293.734 309.794C313.513 329.148 324.97 355.449 325.671 383.113C325.687 383.718 325.582 384.32 325.363 384.884C325.143 385.448 324.814 385.963 324.394 386.398C323.604 387.232 322.529 387.737 321.383 387.813ZM121.408 378.688H316.592C314.82 355.008 304.451 332.793 287.438 316.227C283.703 312.599 278.923 310.238 273.773 309.476C268.623 308.715 263.364 309.592 258.739 311.984C246.405 318.222 232.777 321.473 218.954 321.473C205.132 321.473 191.504 318.222 179.169 311.984C174.545 309.592 169.286 308.715 164.136 309.476C158.986 310.238 154.205 312.599 150.471 316.227C133.492 332.807 123.156 355.02 121.408 378.688Z" fill="#D4CCB6"/>
</g>
<g filter="url(#filter3_f_313_784)">
<path d="M340.408 313.216C331.384 313.216 322.563 310.54 315.06 305.526C307.557 300.513 301.709 293.387 298.256 285.051C294.803 276.714 293.899 267.54 295.66 258.69C297.42 249.839 301.766 241.71 308.146 235.329C314.527 228.948 322.657 224.603 331.507 222.842C340.358 221.082 349.531 221.985 357.868 225.439C366.205 228.892 373.331 234.74 378.344 242.243C383.357 249.746 386.033 258.567 386.033 267.591C386.033 279.691 381.226 291.296 372.67 299.852C364.114 308.409 352.509 313.216 340.408 313.216ZM340.408 231.091C333.189 231.091 326.132 233.231 320.13 237.242C314.127 241.253 309.449 246.953 306.687 253.623C303.924 260.292 303.201 267.631 304.609 274.711C306.018 281.792 309.494 288.295 314.599 293.4C319.703 298.505 326.207 301.981 333.287 303.389C340.368 304.798 347.707 304.075 354.376 301.312C361.046 298.55 366.746 293.871 370.757 287.869C374.767 281.867 376.908 274.81 376.908 267.591C376.932 262.782 376.006 258.016 374.182 253.567C372.359 249.117 369.674 245.072 366.282 241.663C362.891 238.254 358.859 235.55 354.418 233.704C349.978 231.858 345.217 230.908 340.408 230.908V231.091Z" fill="#D4CCB6"/>
</g>
<g filter="url(#filter4_f_313_784)">
<path d="M424.312 387.813H321.383C320.172 387.813 319.012 387.332 318.156 386.476C317.301 385.621 316.82 384.46 316.82 383.25C316.82 382.04 317.301 380.879 318.156 380.024C319.012 379.168 320.172 378.688 321.383 378.688H419.476C417.869 359.84 409.528 342.202 395.979 329.002C393.026 326.091 389.221 324.199 385.119 323.6C381.016 323.001 376.829 323.727 373.167 325.671C362.948 330.843 351.656 333.538 340.203 333.538C328.75 333.538 317.458 330.843 307.239 325.671C303.96 323.939 300.261 323.164 296.562 323.436C295.388 323.513 294.23 323.134 293.328 322.377C292.427 321.621 291.853 320.545 291.726 319.375C291.625 318.171 292.005 316.977 292.784 316.053C293.562 315.129 294.675 314.552 295.878 314.448C301.292 313.989 306.727 315.047 311.573 317.504C320.512 322.027 330.39 324.383 340.408 324.383C350.426 324.383 360.304 322.027 369.243 317.504C374.59 314.761 380.663 313.765 386.606 314.657C392.549 315.549 398.062 318.285 402.367 322.478C418.791 338.502 428.304 360.31 428.875 383.25C428.891 383.855 428.786 384.457 428.566 385.021C428.347 385.585 428.018 386.1 427.597 386.535C427.162 386.955 426.647 387.284 426.083 387.504C425.519 387.723 424.917 387.828 424.312 387.813Z" fill="#D4CCB6"/>
</g>
<g filter="url(#filter5_f_313_784)">
<path d="M97.5919 313.216C88.5681 313.216 79.747 310.54 72.244 305.526C64.741 300.513 58.8931 293.387 55.4399 285.051C51.9866 276.714 51.0831 267.54 52.8436 258.69C54.604 249.839 58.9494 241.71 65.3301 235.329C71.7109 228.948 79.8405 224.603 88.6909 222.842C97.5413 221.082 106.715 221.985 115.052 225.439C123.389 228.892 130.514 234.74 135.528 242.243C140.541 249.746 143.217 258.567 143.217 267.591C143.217 279.691 138.41 291.296 129.854 299.852C121.297 308.409 109.692 313.216 97.5919 313.216ZM97.5919 231.091C90.3729 231.091 83.316 233.231 77.3136 237.242C71.3112 241.253 66.6329 246.953 63.8703 253.623C61.1077 260.292 60.3849 267.631 61.7932 274.711C63.2016 281.792 66.6779 288.295 71.7825 293.4C76.8871 298.505 83.3908 301.981 90.4711 303.389C97.5514 304.798 104.89 304.075 111.56 301.312C118.229 298.55 123.93 293.871 127.941 287.869C131.951 281.867 134.092 274.81 134.092 267.591C134.116 262.782 133.19 258.016 131.366 253.567C129.543 249.117 126.858 245.072 123.466 241.663C120.074 238.254 116.042 235.55 111.602 233.704C107.162 231.858 102.401 230.908 97.5919 230.908V231.091Z" fill="#D4CCB6"/>
</g>
<g filter="url(#filter6_f_313_784)">
<path d="M116.617 387.812H13.6875C13.0729 387.81 12.4651 387.684 11.9006 387.441C11.3361 387.198 10.8266 386.843 10.4025 386.398C9.58727 385.552 9.12968 384.425 9.125 383.25C9.67258 360.279 19.1869 338.433 35.6331 322.386C39.9384 318.194 45.4513 315.458 51.3942 314.566C57.3371 313.674 63.4102 314.67 68.7569 317.413C77.6961 321.936 87.5738 324.292 97.5919 324.292C107.61 324.292 117.488 321.936 126.427 317.413C131.275 314.961 136.708 313.902 142.122 314.356C142.726 314.408 143.314 314.579 143.851 314.86C144.389 315.141 144.865 315.527 145.251 315.994C145.638 316.461 145.927 317.001 146.103 317.582C146.279 318.162 146.337 318.772 146.274 319.375C146.222 319.975 146.052 320.559 145.774 321.093C145.496 321.627 145.114 322.101 144.652 322.487C144.19 322.873 143.656 323.163 143.08 323.342C142.505 323.52 141.9 323.583 141.301 323.527C137.581 323.21 133.848 323.953 130.533 325.671C120.314 330.843 109.022 333.538 97.5691 333.538C86.1161 333.538 74.8238 330.843 64.605 325.671C60.9687 323.78 56.8286 323.084 52.7739 323.682C48.7191 324.28 44.9562 326.142 42.0206 329.002C28.472 342.202 20.1307 359.84 18.5237 378.687H116.617C117.828 378.687 118.988 379.168 119.844 380.024C120.699 380.879 121.18 382.04 121.18 383.25C121.18 384.46 120.699 385.621 119.844 386.476C118.988 387.332 117.828 387.812 116.617 387.812Z" fill="#D4CCB6"/>
</g>
<g filter="url(#filter7_f_313_784)">
<path d="M266.45 182.5C265.839 182.489 265.236 182.365 264.671 182.135C263.846 181.786 263.142 181.201 262.647 180.455C262.153 179.709 261.888 178.833 261.887 177.938V155.125H247.333C243.42 155.089 239.682 153.503 236.936 150.715C234.191 147.927 232.663 144.164 232.687 140.251V65.1069C232.663 61.1899 234.19 57.4223 236.934 54.627C239.678 51.8316 243.416 50.2356 247.333 50.1875H386.033C389.958 50.1996 393.718 51.7671 396.489 54.5467C399.26 57.3262 400.816 61.0909 400.816 65.0156V140.251C400.828 142.2 400.454 144.132 399.717 145.936C398.979 147.74 397.892 149.381 396.518 150.763C395.144 152.145 393.511 153.242 391.711 153.991C389.912 154.74 387.982 155.125 386.033 155.125H295.787L269.644 181.177C268.794 182.02 267.647 182.495 266.45 182.5ZM247.333 59.3125C246.59 59.3303 245.858 59.4942 245.178 59.7951C244.499 60.0959 243.885 60.5278 243.372 61.0659C242.86 61.604 242.458 62.2378 242.19 62.9312C241.923 63.6246 241.794 64.3639 241.812 65.1069V140.251C241.794 140.992 241.923 141.729 242.191 142.42C242.459 143.111 242.862 143.741 243.375 144.276C243.888 144.81 244.502 145.238 245.182 145.534C245.861 145.83 246.592 145.988 247.333 146H266.45C267.66 146 268.821 146.481 269.676 147.336C270.532 148.192 271.012 149.352 271.012 150.562V167.033L290.677 147.369C291.099 146.938 291.603 146.595 292.159 146.36C292.715 146.125 293.313 146.003 293.916 146H386.033C387.534 146 388.973 145.404 390.034 144.343C391.095 143.282 391.691 141.843 391.691 140.343V65.1069C391.703 64.3541 391.566 63.6064 391.287 62.9069C391.009 62.2074 390.595 61.5699 390.069 61.0312C389.543 60.4925 388.915 60.0633 388.223 59.7683C387.53 59.4734 386.786 59.3184 386.033 59.3125H247.333Z" fill="#D4CCB6"/>
</g>
<g filter="url(#filter8_f_313_784)">
<path d="M363.631 123.416H269.689C268.479 123.416 267.319 122.935 266.463 122.079C265.608 121.224 265.127 120.063 265.127 118.853C265.127 117.643 265.608 116.482 266.463 115.627C267.319 114.771 268.479 114.291 269.689 114.291H363.631C364.841 114.291 366.002 114.771 366.857 115.627C367.713 116.482 368.194 117.643 368.194 118.853C368.194 120.063 367.713 121.224 366.857 122.079C366.002 122.935 364.841 123.416 363.631 123.416Z" fill="#D4CCB6"/>
</g>
<g filter="url(#filter9_f_313_784)">
<path d="M363.631 94.6719H269.689C268.479 94.6719 267.319 94.1912 266.463 93.3356C265.608 92.4799 265.127 91.3194 265.127 90.1094C265.127 88.8993 265.608 87.7388 266.463 86.8832C267.319 86.0276 268.479 85.5469 269.689 85.5469H363.631C364.841 85.5469 366.002 86.0276 366.857 86.8832C367.713 87.7388 368.194 88.8993 368.194 90.1094C368.194 91.3194 367.713 92.4799 366.857 93.3356C366.002 94.1912 364.841 94.6719 363.631 94.6719Z" fill="#D4CCB6"/>
</g>
<path d="M219 297.84C208.171 297.84 197.586 294.629 188.583 288.613C179.579 282.597 172.561 274.046 168.418 264.042C164.274 254.038 163.189 243.029 165.302 232.409C167.415 221.788 172.629 212.033 180.286 204.376C187.943 196.719 197.698 191.505 208.319 189.392C218.939 187.28 229.948 188.364 239.952 192.508C249.956 196.652 258.507 203.669 264.523 212.673C270.539 221.676 273.75 232.262 273.75 243.09C273.75 257.611 267.982 271.537 257.714 281.804C247.446 292.072 233.521 297.84 219 297.84ZM219 197.465C209.976 197.465 201.155 200.141 193.652 205.154C186.149 210.168 180.301 217.293 176.848 225.63C173.395 233.967 172.491 243.141 174.252 251.991C176.012 260.841 180.357 268.971 186.738 275.352C193.119 281.733 201.249 286.078 210.099 287.838C218.949 289.599 228.123 288.695 236.46 285.242C244.797 281.789 251.922 275.941 256.936 268.438C261.949 260.935 264.625 252.114 264.625 243.09C264.643 237.087 263.476 231.139 261.191 225.588C258.907 220.037 255.549 214.991 251.31 210.74C247.072 206.489 242.036 203.116 236.492 200.814C230.947 198.513 225.003 197.328 219 197.328V197.465Z" fill="#D4CCB6"/>
<path d="M321.383 387.813H116.618C116.003 387.81 115.395 387.684 114.831 387.441C114.266 387.198 113.757 386.843 113.333 386.398C112.912 385.963 112.583 385.448 112.364 384.884C112.144 384.32 112.039 383.718 112.055 383.113C112.756 355.449 124.213 329.148 143.993 309.794C149.094 304.829 155.628 301.594 162.669 300.546C169.711 299.498 176.903 300.69 183.23 303.954C194.28 309.532 206.485 312.438 218.863 312.438C231.241 312.438 243.446 309.532 254.496 303.954C260.823 300.69 268.016 299.498 275.057 300.546C282.098 301.594 288.632 304.829 293.734 309.794C313.513 329.148 324.97 355.449 325.671 383.113C325.687 383.718 325.582 384.32 325.363 384.884C325.143 385.448 324.814 385.963 324.394 386.398C323.604 387.232 322.529 387.737 321.383 387.813ZM121.408 378.688H316.592C314.82 355.008 304.451 332.793 287.438 316.227C283.703 312.599 278.923 310.238 273.773 309.476C268.623 308.715 263.364 309.592 258.739 311.984C246.405 318.222 232.777 321.473 218.954 321.473C205.132 321.473 191.504 318.222 179.169 311.984C174.545 309.592 169.286 308.715 164.136 309.476C158.986 310.238 154.205 312.599 150.471 316.227C133.492 332.807 123.156 355.02 121.408 378.688Z" fill="#D4CCB6"/>
<path d="M340.408 313.216C331.384 313.216 322.563 310.54 315.06 305.526C307.557 300.513 301.709 293.387 298.256 285.051C294.803 276.714 293.899 267.54 295.66 258.69C297.42 249.839 301.766 241.71 308.146 235.329C314.527 228.948 322.657 224.603 331.507 222.842C340.358 221.082 349.531 221.985 357.868 225.439C366.205 228.892 373.331 234.74 378.344 242.243C383.357 249.746 386.033 258.567 386.033 267.591C386.033 279.691 381.226 291.296 372.67 299.852C364.114 308.409 352.509 313.216 340.408 313.216ZM340.408 231.091C333.189 231.091 326.132 233.231 320.13 237.242C314.127 241.253 309.449 246.953 306.687 253.623C303.924 260.292 303.201 267.631 304.609 274.711C306.018 281.792 309.494 288.295 314.599 293.4C319.703 298.505 326.207 301.981 333.287 303.389C340.368 304.798 347.707 304.075 354.376 301.312C361.046 298.55 366.746 293.871 370.757 287.869C374.767 281.867 376.908 274.81 376.908 267.591C376.932 262.782 376.006 258.016 374.182 253.567C372.359 249.117 369.674 245.072 366.282 241.663C362.891 238.254 358.859 235.55 354.418 233.704C349.978 231.858 345.217 230.908 340.408 230.908V231.091Z" fill="#D4CCB6"/>
<path d="M424.312 387.813H321.383C320.172 387.813 319.012 387.332 318.156 386.476C317.301 385.621 316.82 384.46 316.82 383.25C316.82 382.04 317.301 380.879 318.156 380.024C319.012 379.168 320.172 378.688 321.383 378.688H419.476C417.869 359.84 409.528 342.202 395.979 329.002C393.026 326.091 389.221 324.199 385.119 323.6C381.016 323.001 376.829 323.727 373.167 325.671C362.948 330.843 351.656 333.538 340.203 333.538C328.75 333.538 317.458 330.843 307.239 325.671C303.96 323.939 300.261 323.164 296.562 323.436C295.388 323.513 294.23 323.134 293.328 322.377C292.427 321.621 291.853 320.545 291.726 319.375C291.625 318.171 292.005 316.977 292.784 316.053C293.562 315.129 294.675 314.552 295.878 314.448C301.292 313.989 306.727 315.047 311.573 317.504C320.512 322.027 330.39 324.383 340.408 324.383C350.426 324.383 360.304 322.027 369.243 317.504C374.59 314.761 380.663 313.765 386.606 314.657C392.549 315.549 398.062 318.285 402.367 322.478C418.791 338.502 428.304 360.31 428.875 383.25C428.891 383.855 428.786 384.457 428.566 385.021C428.347 385.585 428.018 386.1 427.597 386.535C427.162 386.955 426.647 387.284 426.083 387.504C425.519 387.723 424.917 387.828 424.312 387.813Z" fill="#D4CCB6"/>
<path d="M97.5919 313.216C88.5681 313.216 79.747 310.54 72.244 305.526C64.741 300.513 58.8931 293.387 55.4399 285.051C51.9866 276.714 51.0831 267.54 52.8436 258.69C54.604 249.839 58.9494 241.71 65.3301 235.329C71.7109 228.948 79.8405 224.603 88.6909 222.842C97.5413 221.082 106.715 221.985 115.052 225.439C123.389 228.892 130.514 234.74 135.528 242.243C140.541 249.746 143.217 258.567 143.217 267.591C143.217 279.691 138.41 291.296 129.854 299.852C121.297 308.409 109.692 313.216 97.5919 313.216ZM97.5919 231.091C90.3729 231.091 83.316 233.231 77.3136 237.242C71.3112 241.253 66.6329 246.953 63.8703 253.623C61.1077 260.292 60.3849 267.631 61.7932 274.711C63.2016 281.792 66.6779 288.295 71.7825 293.4C76.8871 298.505 83.3908 301.981 90.4711 303.389C97.5514 304.798 104.89 304.075 111.56 301.312C118.229 298.55 123.93 293.871 127.941 287.869C131.951 281.867 134.092 274.81 134.092 267.591C134.116 262.782 133.19 258.016 131.366 253.567C129.543 249.117 126.858 245.072 123.466 241.663C120.074 238.254 116.042 235.55 111.602 233.704C107.162 231.858 102.401 230.908 97.5919 230.908V231.091Z" fill="#D4CCB6"/>
<path d="M116.617 387.812H13.6875C13.0729 387.81 12.4651 387.684 11.9006 387.441C11.3361 387.198 10.8266 386.843 10.4025 386.398C9.58727 385.552 9.12968 384.425 9.125 383.25C9.67258 360.279 19.1869 338.433 35.6331 322.386C39.9384 318.194 45.4513 315.458 51.3942 314.566C57.3371 313.674 63.4102 314.67 68.7569 317.413C77.6961 321.936 87.5738 324.292 97.5919 324.292C107.61 324.292 117.488 321.936 126.427 317.413C131.275 314.961 136.708 313.902 142.122 314.356C142.726 314.408 143.314 314.579 143.851 314.86C144.389 315.141 144.865 315.527 145.251 315.994C145.638 316.461 145.927 317.001 146.103 317.582C146.279 318.162 146.337 318.772 146.274 319.375C146.222 319.975 146.052 320.559 145.774 321.093C145.496 321.627 145.114 322.101 144.652 322.487C144.19 322.873 143.656 323.163 143.08 323.342C142.505 323.52 141.9 323.583 141.301 323.527C137.581 323.21 133.848 323.953 130.533 325.671C120.314 330.843 109.022 333.538 97.5691 333.538C86.1161 333.538 74.8238 330.843 64.605 325.671C60.9687 323.78 56.8286 323.084 52.7739 323.682C48.7191 324.28 44.9562 326.142 42.0206 329.002C28.472 342.202 20.1307 359.84 18.5237 378.687H116.617C117.828 378.687 118.988 379.168 119.844 380.024C120.699 380.879 121.18 382.04 121.18 383.25C121.18 384.46 120.699 385.621 119.844 386.476C118.988 387.332 117.828 387.812 116.617 387.812Z" fill="#D4CCB6"/>
<path d="M266.45 182.5C265.839 182.489 265.236 182.365 264.671 182.135C263.846 181.786 263.142 181.201 262.647 180.455C262.153 179.709 261.888 178.833 261.887 177.938V155.125H247.333C243.42 155.089 239.682 153.503 236.936 150.715C234.191 147.927 232.663 144.164 232.687 140.251V65.1069C232.663 61.1899 234.19 57.4223 236.934 54.627C239.678 51.8316 243.416 50.2356 247.333 50.1875H386.033C389.958 50.1996 393.718 51.7671 396.489 54.5467C399.26 57.3262 400.816 61.0909 400.816 65.0156V140.251C400.828 142.2 400.454 144.132 399.717 145.936C398.979 147.74 397.892 149.381 396.518 150.763C395.144 152.145 393.511 153.242 391.711 153.991C389.912 154.74 387.982 155.125 386.033 155.125H295.787L269.644 181.177C268.794 182.02 267.647 182.495 266.45 182.5ZM247.333 59.3125C246.59 59.3303 245.858 59.4942 245.178 59.7951C244.499 60.0959 243.885 60.5278 243.372 61.0659C242.86 61.604 242.458 62.2378 242.19 62.9312C241.923 63.6246 241.794 64.3639 241.812 65.1069V140.251C241.794 140.992 241.923 141.729 242.191 142.42C242.459 143.111 242.862 143.741 243.375 144.276C243.888 144.81 244.502 145.238 245.182 145.534C245.861 145.83 246.592 145.988 247.333 146H266.45C267.66 146 268.821 146.481 269.676 147.336C270.532 148.192 271.012 149.352 271.012 150.562V167.033L290.677 147.369C291.099 146.938 291.603 146.595 292.159 146.36C292.715 146.125 293.313 146.003 293.916 146H386.033C387.534 146 388.973 145.404 390.034 144.343C391.095 143.282 391.691 141.843 391.691 140.343V65.1069C391.703 64.3541 391.566 63.6064 391.287 62.9069C391.009 62.2074 390.595 61.5699 390.069 61.0312C389.543 60.4925 388.915 60.0633 388.223 59.7683C387.53 59.4734 386.786 59.3184 386.033 59.3125H247.333Z" fill="#D4CCB6"/>
<path d="M363.631 123.416H269.689C268.479 123.416 267.319 122.935 266.463 122.079C265.608 121.224 265.127 120.063 265.127 118.853C265.127 117.643 265.608 116.482 266.463 115.627C267.319 114.771 268.479 114.291 269.689 114.291H363.631C364.841 114.291 366.002 114.771 366.857 115.627C367.713 116.482 368.194 117.643 368.194 118.853C368.194 120.063 367.713 121.224 366.857 122.079C366.002 122.935 364.841 123.416 363.631 123.416Z" fill="#D4CCB6"/>
<path d="M363.631 94.6719H269.689C268.479 94.6719 267.319 94.1912 266.463 93.3356C265.608 92.4799 265.127 91.3194 265.127 90.1094C265.127 88.8993 265.608 87.7388 266.463 86.8832C267.319 86.0276 268.479 85.5469 269.689 85.5469H363.631C364.841 85.5469 366.002 86.0276 366.857 86.8832C367.713 87.7388 368.194 88.8993 368.194 90.1094C368.194 91.3194 367.713 92.4799 366.857 93.3356C366.002 94.1912 364.841 94.6719 363.631 94.6719Z" fill="#D4CCB6"/>
</g>
<defs>
<filter id="filter0_d_313_784" x="-4" y="0" width="446" height="446" filterUnits="userSpaceOnUse" color-interpolation-filters="sRGB">
<feFlood flood-opacity="0" result="BackgroundImageFix"/>
<feColorMatrix in="SourceAlpha" type="matrix" values="0 0 0 0 0 0 0 0 0 0 0 0 0 0 0 0 0 0 127 0" result="hardAlpha"/>
<feOffset dy="4"/>
<feGaussianBlur stdDeviation="2"/>
<feComposite in2="hardAlpha" operator="out"/>
<feColorMatrix type="matrix" values="0 0 0 0 0 0 0 0 0 0 0 0 0 0 0 0 0 0 0.25 0"/>
<feBlend mode="normal" in2="BackgroundImageFix" result="effect1_dropShadow_313_784"/>
<feBlend mode="normal" in="SourceGraphic" in2="effect1_dropShadow_313_784" result="shape"/>
</filter>
<filter id="filter1_f_313_784" x="158.25" y="182.34" width="121.5" height="121.5" filterUnits="userSpaceOnUse" color-interpolation-filters="sRGB">
<feFlood flood-opacity="0" result="BackgroundImageFix"/>
<feBlend mode="normal" in="SourceGraphic" in2="BackgroundImageFix" result="shape"/>
<feGaussianBlur stdDeviation="3" result="effect1_foregroundBlur_313_784"/>
</filter>
<filter id="filter2_f_313_784" x="106.053" y="294.176" width="225.619" height="99.637" filterUnits="userSpaceOnUse" color-interpolation-filters="sRGB">
<feFlood flood-opacity="0" result="BackgroundImageFix"/>
<feBlend mode="normal" in="SourceGraphic" in2="BackgroundImageFix" result="shape"/>
<feGaussianBlur stdDeviation="3" result="effect1_foregroundBlur_313_784"/>
</filter>
<filter id="filter3_f_313_784" x="288.783" y="215.966" width="103.25" height="103.25" filterUnits="userSpaceOnUse" color-interpolation-filters="sRGB">
<feFlood flood-opacity="0" result="BackgroundImageFix"/>
<feBlend mode="normal" in="SourceGraphic" in2="BackgroundImageFix" result="shape"/>
<feGaussianBlur stdDeviation="3" result="effect1_foregroundBlur_313_784"/>
</filter>
<filter id="filter4_f_313_784" x="285.71" y="308.339" width="149.166" height="85.4749" filterUnits="userSpaceOnUse" color-interpolation-filters="sRGB">
<feFlood flood-opacity="0" result="BackgroundImageFix"/>
<feBlend mode="normal" in="SourceGraphic" in2="BackgroundImageFix" result="shape"/>
<feGaussianBlur stdDeviation="3" result="effect1_foregroundBlur_313_784"/>
</filter>
<filter id="filter5_f_313_784" x="45.9669" y="215.966" width="103.25" height="103.25" filterUnits="userSpaceOnUse" color-interpolation-filters="sRGB">
<feFlood flood-opacity="0" result="BackgroundImageFix"/>
<feBlend mode="normal" in="SourceGraphic" in2="BackgroundImageFix" result="shape"/>
<feGaussianBlur stdDeviation="3" result="effect1_foregroundBlur_313_784"/>
</filter>
<filter id="filter6_f_313_784" x="3.125" y="308.248" width="149.173" height="85.5647" filterUnits="userSpaceOnUse" color-interpolation-filters="sRGB">
<feFlood flood-opacity="0" result="BackgroundImageFix"/>
<feBlend mode="normal" in="SourceGraphic" in2="BackgroundImageFix" result="shape"/>
<feGaussianBlur stdDeviation="3" result="effect1_foregroundBlur_313_784"/>
</filter>
<filter id="filter7_f_313_784" x="226.687" y="44.1875" width="180.129" height="144.312" filterUnits="userSpaceOnUse" color-interpolation-filters="sRGB">
<feFlood flood-opacity="0" result="BackgroundImageFix"/>
<feBlend mode="normal" in="SourceGraphic" in2="BackgroundImageFix" result="shape"/>
<feGaussianBlur stdDeviation="3" result="effect1_foregroundBlur_313_784"/>
</filter>
<filter id="filter8_f_313_784" x="259.127" y="108.291" width="115.067" height="21.125" filterUnits="userSpaceOnUse" color-interpolation-filters="sRGB">
<feFlood flood-opacity="0" result="BackgroundImageFix"/>
<feBlend mode="normal" in="SourceGraphic" in2="BackgroundImageFix" result="shape"/>
<feGaussianBlur stdDeviation="3" result="effect1_foregroundBlur_313_784"/>
</filter>
<filter id="filter9_f_313_784" x="259.127" y="79.5469" width="115.067" height="21.125" filterUnits="userSpaceOnUse" color-interpolation-filters="sRGB">
<feFlood flood-opacity="0" result="BackgroundImageFix"/>
<feBlend mode="normal" in="SourceGraphic" in2="BackgroundImageFix" result="shape"/>
<feGaussianBlur stdDeviation="3" result="effect1_foregroundBlur_313_784"/>
</filter>
</defs>
</svg>
