<svg width="186" height="93" viewBox="0 0 186 93" fill="none" xmlns="http://www.w3.org/2000/svg">
<g clip-path="url(#clip0_306_15)">
<path d="M0 20.2437L11.2623 40.3742V52.6534L0.013175 72.7444L0 20.2437Z" fill="#29626C"/>
<path d="M43.2422 33.0478L53.7955 26.5797L75.393 26.5596L43.2422 46.2555V33.0478Z" fill="#29626C"/>
<path d="M43.1831 20.1245L43.2426 46.7766L31.9541 39.8405V0L43.1831 20.1245Z" fill="#29626C"/>
<path d="M75.3935 26.5601L53.7951 26.5801L43.1831 20.1245L31.9541 0L75.3935 26.5601Z" fill="#1C464D"/>
<path d="M43.2426 72.8564V59.9255L31.9541 53.1211L31.9602 93.001L43.2426 72.8564Z" fill="#29626C"/>
<path d="M53.7694 66.4468L11.2615 40.3742L0 20.2437L75.3477 66.4204L53.7694 66.4468Z" fill="#1C464D"/>
<path d="M31.9614 93.0006L43.2423 72.856L53.7692 66.4466L75.3474 66.4204L31.9614 93.0006Z" fill="#29626C"/>
<path d="M0.0136719 72.7433L32.0467 53.1203L21.2773 46.5127L11.2628 52.6524L0.0136719 72.7433Z" fill="#1C464D"/>
<path fill-rule="evenodd" clip-rule="evenodd" d="M123.136 49.6603C130.404 49.6603 135.801 45.2041 135.801 38.4486C135.801 31.9096 131.819 27.6645 125.164 27.6645C122.093 27.6645 119.559 28.7452 117.65 30.6107C118.106 26.7555 121.366 23.94 124.956 23.94C125.784 23.94 132.022 23.9272 132.022 23.9272L135.549 17.1777C135.549 17.1777 127.718 17.3564 124.078 17.3564C115.761 17.5009 110.143 25.0609 110.143 34.2428C110.143 44.9407 115.622 49.6603 123.136 49.6603ZM123.181 33.6427C125.879 33.6427 127.75 35.4159 127.75 38.4479C127.75 41.1763 126.088 43.4248 123.181 43.4308C120.4 43.4308 118.529 41.3472 118.529 38.494C118.529 35.4614 120.4 33.6427 123.181 33.6427ZM163.865 26.1107V48.8475H155.746V32.898H147.929V48.8475H139.81V26.1092L163.865 26.1107ZM98.7529 42.5499C101.617 42.341 103.534 41.2353 103.534 41.2353L106.538 46.7942C104.614 48.0302 101.457 48.8339 99.1684 48.9187C90.9807 49.0692 85.2852 44.087 85.2852 36.8282C85.2852 29.661 91.3447 24.56 99.1684 24.56C102.268 24.56 104.934 25.3916 106.935 26.9084C106.514 27.6547 105.941 28.6884 105.397 29.6776L104.525 31.2655L103.733 32.7155C103.733 32.7155 100.849 31.2048 98.6701 31.2048C95.116 31.2048 92.5276 33.2704 92.5276 36.8736C92.5276 40.5684 95.4607 42.6476 98.7529 42.5499ZM92.5299 64.1492C92.2819 64.4655 91.9559 64.7047 91.5645 64.866C91.1626 65.0293 90.7331 65.1126 90.2995 65.1104C89.8684 65.1164 89.4397 65.0446 89.034 64.8986C88.6696 64.7659 88.3367 64.5595 88.0558 64.2922C87.7789 64.0244 87.5612 63.7011 87.4175 63.3432C87.2616 62.9519 87.184 62.5334 87.1889 62.1117C87.1889 61.6932 87.2608 61.3058 87.4102 60.9388C87.5536 60.5709 87.7621 60.2552 88.0233 59.9904C88.1417 59.8678 88.2708 59.7581 88.4092 59.6597L88.494 59.6022C88.5829 59.5438 88.6758 59.4893 88.7717 59.4394L88.8751 59.3879L88.9497 59.3524C89.3083 59.1973 89.6997 59.1132 90.1299 59.1132C90.593 59.1132 91.0234 59.1714 91.4146 59.2873C91.6618 59.36 91.885 59.4636 92.0848 59.5983C92.2021 59.6779 92.3111 59.7679 92.4121 59.8686L91.9365 60.6745C91.7061 60.4656 91.4351 60.3075 91.1402 60.2091C90.8603 60.1191 90.5674 60.0737 90.2733 60.0745C90.0127 60.0745 89.7648 60.1258 89.5237 60.2227C89.2864 60.3181 89.0693 60.4582 88.8846 60.636C88.6953 60.8175 88.5467 61.0379 88.4472 61.2809C88.3367 61.5314 88.2844 61.8091 88.2844 62.1186C88.2844 62.4342 88.3426 62.7181 88.4535 62.9632C88.5653 63.2145 88.7146 63.4278 88.9038 63.6081C89.0928 63.7889 89.3145 63.9237 89.5687 64.0145C89.6725 64.0539 89.7784 64.0848 89.8866 64.1075C90.0443 64.1408 90.2078 64.1568 90.3778 64.1568C90.7297 64.1568 91.0499 64.0848 91.3235 63.9494C91.4669 63.8798 91.6028 63.7965 91.7291 63.7003C91.8411 63.615 91.9456 63.5195 92.0409 63.415L92.5299 64.1492ZM93.8733 64.975V59.2358H94.9038V63.5119L98.2557 59.2358H99.2865V64.9757H98.2557V60.7003L94.9038 64.9757L93.8733 64.975ZM106.114 64.1492C105.861 64.4685 105.528 64.7153 105.149 64.866C104.919 64.959 104.68 65.0263 104.436 65.0665C104.254 65.0961 104.069 65.1111 103.884 65.1104C103.711 65.1126 103.538 65.1028 103.368 65.0801C103.113 65.0468 102.862 64.9863 102.619 64.8986C102.536 64.8682 102.454 64.8342 102.374 64.7963C102.278 64.7501 102.184 64.6986 102.093 64.6426C101.931 64.542 101.779 64.4246 101.64 64.2922C101.363 64.0244 101.145 63.7011 101.001 63.3432C100.846 62.9519 100.768 62.5334 100.773 62.1117C100.773 61.6932 100.845 61.3058 100.995 60.9388C101.139 60.5709 101.347 60.2552 101.608 59.9904C101.869 59.7194 102.182 59.5137 102.534 59.3524C102.905 59.1889 103.308 59.1073 103.714 59.1132C103.983 59.1132 104.241 59.1329 104.487 59.1722L104.631 59.1973C104.685 59.2079 104.739 59.22 104.793 59.2328L104.888 59.2562L104.999 59.2873C105.39 59.403 105.723 59.5968 105.997 59.8686L105.521 60.6745C105.291 60.4656 105.02 60.3075 104.726 60.2091C104.655 60.1864 104.583 60.166 104.511 60.1485C104.461 60.1371 104.411 60.1275 104.361 60.1184C104.314 60.11 104.266 60.1024 104.218 60.0964L104.113 60.0851C104.028 60.0774 103.943 60.0737 103.858 60.0745C103.34 60.0759 102.842 60.2772 102.469 60.636C102.42 60.6836 102.374 60.7329 102.331 60.7852C102.28 60.8464 102.233 60.9115 102.19 60.9788C102.128 61.075 102.075 61.1756 102.031 61.2809C102.007 61.3353 101.986 61.3913 101.968 61.4488C101.946 61.5146 101.928 61.582 101.914 61.6508C101.884 61.7985 101.869 61.9536 101.869 62.1186C101.869 62.2678 101.882 62.4093 101.907 62.5432C101.922 62.6227 101.941 62.6984 101.965 62.7718C101.986 62.8384 102.011 62.902 102.038 62.9632C102.108 63.1222 102.194 63.266 102.295 63.3955C102.354 63.471 102.418 63.5415 102.488 63.6081C102.677 63.7889 102.9 63.9237 103.154 64.0145C103.408 64.1045 103.675 64.1568 103.962 64.1568C104.082 64.1568 104.198 64.1484 104.31 64.1319C104.525 64.1008 104.723 64.0387 104.908 63.9494C105.178 63.8184 105.422 63.6369 105.625 63.415L106.114 64.1492ZM106.649 59.2358H111.931V60.2552H109.805V64.975H108.775V60.2552H106.649V59.2358ZM117.755 64.3498C117.468 64.6071 117.136 64.7948 116.744 64.9173C116.367 65.0392 115.974 65.102 115.577 65.1043C115.418 65.1067 115.26 65.0983 115.102 65.0801C114.827 65.0475 114.555 64.9847 114.293 64.8917C113.907 64.7501 113.582 64.5496 113.314 64.2855C113.041 64.0175 112.828 63.6944 112.688 63.3378C112.545 62.9701 112.466 62.5576 112.466 62.1058C112.463 61.7053 112.531 61.308 112.669 60.9327C112.794 60.5793 112.992 60.2567 113.249 59.9842C113.371 59.8579 113.505 59.7428 113.649 59.6414C113.815 59.5243 113.993 59.4249 114.182 59.3455C114.397 59.2562 114.629 59.1904 114.881 59.1512C115.064 59.1223 115.256 59.1073 115.46 59.1073C115.579 59.1063 115.699 59.1132 115.816 59.1275C115.923 59.1405 116.029 59.1593 116.133 59.1835C116.261 59.2138 116.387 59.2533 116.51 59.3009C116.83 59.4197 117.122 59.6015 117.371 59.836C117.434 59.8974 117.494 59.9608 117.55 60.0281C117.597 60.0836 117.641 60.1403 117.683 60.1993C117.747 60.2893 117.805 60.3847 117.857 60.4823C117.888 60.5428 117.918 60.6049 117.944 60.6678C118.003 60.801 118.05 60.9395 118.085 61.0841C118.135 61.289 118.16 61.507 118.16 61.7386C118.16 62.0029 118.14 62.2283 118.095 62.4281H113.634C113.68 62.9708 113.882 63.3955 114.253 63.6988C114.625 64.0024 115.094 64.1499 115.662 64.1499C115.855 64.1499 116.04 64.1348 116.215 64.1045C116.383 64.0759 116.542 64.0335 116.693 63.9765C116.999 63.8601 117.253 63.7186 117.442 63.5506L117.755 64.3498ZM115.414 60.0683C114.879 60.0683 114.455 60.2099 114.136 60.4996C113.82 60.7852 113.619 61.1748 113.569 61.5963H117.09C117.064 61.1196 116.908 60.7457 116.614 60.4747C116.566 60.4293 116.514 60.3884 116.459 60.3514C116.408 60.3159 116.353 60.2841 116.297 60.2552C116.254 60.2333 116.209 60.2136 116.163 60.1955C115.946 60.1107 115.695 60.0683 115.414 60.0683ZM119.562 59.2358H120.501L122.731 62.0801L124.844 59.2358H125.757V64.9757H124.727V60.7904L122.718 63.4537H122.679L120.593 60.7896V64.975H119.562V59.2358ZM128.111 59.4091C128.257 59.347 128.407 59.2957 128.561 59.2555C128.894 59.1655 129.239 59.1139 129.605 59.1139C129.961 59.1139 130.272 59.1526 130.536 59.2298C130.713 59.2812 130.869 59.3502 131.004 59.4355C131.133 59.5166 131.243 59.6135 131.333 59.7263C131.478 59.9041 131.591 60.1152 131.672 60.359C131.777 60.673 131.828 61.0409 131.828 61.4616V64.9824H130.864V64.2409C130.694 64.4603 130.459 64.6532 130.165 64.8214C129.872 64.9886 129.487 65.0725 129.004 65.0725C128.655 65.0725 128.35 65.0066 128.09 64.8749C128.033 64.8463 127.979 64.8145 127.926 64.7797C127.891 64.7555 127.856 64.7297 127.822 64.7033C127.785 64.6737 127.748 64.6419 127.713 64.6086C127.387 64.2991 127.224 63.8601 127.224 63.2993C127.221 63.0291 127.279 62.7627 127.394 62.5183C127.501 62.2957 127.657 62.0996 127.85 61.9452C128.039 61.7901 128.274 61.6737 128.548 61.5963C128.602 61.5812 128.657 61.5669 128.712 61.5541L128.795 61.5359L128.889 61.5191C129.058 61.4897 129.233 61.4737 129.416 61.4737C129.665 61.4769 129.914 61.5026 130.159 61.5517C130.412 61.5956 130.652 61.6947 130.864 61.8424C130.864 61.728 130.861 61.6175 130.856 61.5109L130.845 61.3541C130.839 61.2695 130.829 61.1869 130.818 61.1068C130.785 60.8811 130.726 60.6883 130.635 60.5331C130.592 60.4604 130.54 60.3931 130.48 60.3339C130.452 60.306 130.421 60.2794 130.389 60.2552C130.367 60.2394 130.344 60.2234 130.319 60.2091C130.293 60.1933 130.266 60.1788 130.237 60.1652C130.061 60.0752 129.833 60.0291 129.546 60.0291C129.187 60.0291 128.887 60.0683 128.653 60.1524L128.528 60.1985L128.422 60.2387L128.298 60.2893C128.181 60.3386 128.065 60.3916 127.948 60.4491L127.674 59.6355C127.814 59.5492 127.96 59.4735 128.111 59.4091ZM129.364 64.1499C129.742 64.1499 130.049 64.0735 130.284 63.9055C130.495 63.7647 130.688 63.5975 130.857 63.4083V62.6794C130.743 62.5977 130.622 62.5297 130.493 62.4744C130.42 62.4434 130.346 62.4168 130.269 62.3948C130.216 62.3797 130.161 62.3662 130.106 62.3541C130.042 62.3403 129.977 62.3297 129.91 62.3215C129.796 62.307 129.676 62.2996 129.553 62.2996C129.396 62.2996 129.247 62.3184 129.096 62.357C129.022 62.3751 128.949 62.4002 128.879 62.432C128.817 62.4599 128.757 62.4932 128.699 62.5319C128.588 62.6091 128.491 62.706 128.418 62.8286L128.403 62.855C128.393 62.8754 128.383 62.8959 128.374 62.9171C128.364 62.9405 128.356 62.9647 128.349 62.9898C128.342 63.0125 128.336 63.0359 128.331 63.0601C128.319 63.1183 128.314 63.1805 128.314 63.2471C128.314 63.5181 128.405 63.7375 128.588 63.9047C128.693 63.9977 128.825 64.0653 128.981 64.1053C129.095 64.1348 129.223 64.1499 129.364 64.1499ZM141.513 56.7216C141.331 56.9601 141.135 57.1211 140.927 57.2173C140.718 57.3142 140.49 57.3793 140.242 57.4308C140.056 57.4693 139.861 57.5049 139.657 57.5421L139.453 57.5798C139.144 57.6366 138.843 57.7342 138.559 57.8698C138.451 57.9159 138.348 57.9719 138.251 58.0363C138.181 58.0824 138.114 58.1324 138.051 58.1869L137.975 58.2557L137.929 58.3019L137.881 58.3527C137.846 58.3943 137.812 58.4365 137.779 58.4797C137.714 58.5652 137.654 58.6538 137.6 58.7462C137.545 58.8392 137.495 58.9361 137.451 59.0368C137.339 59.2873 137.255 59.5529 137.196 59.8299C137.138 60.1077 137.105 60.3778 137.085 60.6419H137.112C137.203 60.4362 137.333 60.2552 137.49 60.0932C137.65 59.9299 137.832 59.7891 138.031 59.6747C138.074 59.6498 138.118 59.6256 138.163 59.6022C138.213 59.5763 138.264 59.5522 138.316 59.5295C138.435 59.4772 138.558 59.4333 138.683 59.3978C138.918 59.3334 139.159 59.3009 139.407 59.3009C139.649 59.2979 139.89 59.3243 140.125 59.3796C140.262 59.4121 140.397 59.4545 140.528 59.5068C140.853 59.6355 141.144 59.8345 141.383 60.088C141.622 60.3469 141.804 60.6518 141.918 60.9842C142.042 61.3329 142.107 61.7258 142.107 62.1573C142.107 62.5576 142.035 62.9375 141.885 63.2924C141.824 63.4453 141.75 63.5913 141.664 63.7292C141.552 63.9107 141.42 64.0774 141.272 64.2278C141.004 64.5003 140.685 64.7168 140.333 64.866C139.968 65.0211 139.564 65.105 139.127 65.105C138.651 65.105 138.227 65.0211 137.848 64.8537C137.47 64.6865 137.15 64.4535 136.883 64.1439C136.616 63.8404 136.414 63.4673 136.27 63.0214C136.127 62.5765 136.055 62.0808 136.055 61.5321C136.055 61.1068 136.081 60.6624 136.133 60.1978C136.184 59.7421 136.287 59.2949 136.44 58.8627C136.59 58.4365 136.812 58.0498 137.092 57.7085C137.373 57.3665 137.744 57.0962 138.208 56.8957L138.309 56.8518C138.358 56.8314 138.408 56.8116 138.458 56.7936C138.55 56.7603 138.642 56.73 138.736 56.7026C138.792 56.6868 138.848 56.6716 138.905 56.658C138.976 56.6407 139.048 56.6255 139.12 56.6126L139.477 56.5512L139.668 56.5179L139.863 56.4832C139.978 56.4634 140.092 56.437 140.203 56.4037C140.291 56.3781 140.378 56.3485 140.463 56.3152C140.511 56.297 140.557 56.2735 140.601 56.2471L140.66 56.2092C140.765 56.1359 140.863 56.0375 140.953 55.9157L141.513 56.7216ZM137.157 61.7258C137.151 62.0663 137.2 62.4061 137.3 62.7316C137.387 63.0071 137.521 63.2645 137.698 63.493C137.867 63.6974 138.078 63.8623 138.318 63.9765C138.559 64.0924 138.821 64.1506 139.107 64.1506C139.324 64.1506 139.523 64.1213 139.708 64.0614L139.776 64.0387C139.812 64.0258 139.848 64.0115 139.884 63.9955C140.109 63.9003 140.313 63.7595 140.483 63.5839C140.654 63.4076 140.787 63.1987 140.875 62.9701C140.965 62.7385 141.018 62.4865 141.018 62.2094C141.018 61.6486 140.862 61.1839 140.542 60.8108C140.435 60.6868 140.312 60.5837 140.173 60.5013C140.059 60.4331 139.934 60.3795 139.798 60.3393C139.607 60.2833 139.395 60.2552 139.159 60.2552C138.673 60.2515 138.199 60.4128 137.816 60.7132C137.646 60.8493 137.503 61.0037 137.392 61.1778C137.353 61.2355 137.319 61.2952 137.288 61.3573C137.263 61.4071 137.241 61.4579 137.222 61.5094C137.195 61.5797 137.174 61.6525 137.157 61.7258ZM148.981 59.2365H150.011V64.9765H148.981V59.2365ZM144.624 59.2365H143.594H143.587V64.9824H145.459C145.553 64.9824 145.643 64.9795 145.73 64.9741C145.785 64.9711 145.838 64.9666 145.89 64.9612C145.938 64.9568 145.984 64.9514 146.029 64.9447C146.242 64.9144 146.434 64.866 146.607 64.8024C146.679 64.775 146.749 64.7464 146.815 64.7153L146.899 64.6729L146.966 64.6374C147.013 64.6101 147.058 64.5814 147.1 64.5511C147.128 64.5321 147.155 64.5124 147.18 64.4929C147.212 64.4678 147.242 64.4421 147.271 64.4157C147.299 64.3906 147.325 64.3642 147.35 64.3376C147.533 64.1439 147.67 63.9312 147.749 63.6868C147.798 63.5415 147.833 63.3962 147.852 63.2485C147.866 63.1464 147.872 63.0426 147.872 62.9375C147.872 62.8823 147.87 62.8278 147.867 62.7733C147.864 62.7255 147.859 62.6786 147.853 62.6318C147.835 62.4833 147.804 62.3388 147.761 62.1958C147.689 61.9581 147.565 61.7455 147.389 61.5647C147.213 61.3837 146.979 61.2362 146.685 61.1257C146.391 61.0167 146.026 60.9583 145.577 60.9583H144.624V59.2365ZM145.374 64.0214H144.624V61.9188V61.9052H145.388C145.484 61.9052 145.575 61.9082 145.66 61.9151C145.792 61.9255 145.911 61.9445 146.018 61.9711C146.099 61.9906 146.172 62.0157 146.239 62.0444C146.323 62.0816 146.396 62.1255 146.457 62.1768C146.527 62.2374 146.585 62.3063 146.632 62.3849C146.684 62.4712 146.722 62.5689 146.746 62.6771C146.766 62.7672 146.776 62.8648 146.776 62.9701C146.776 63.3122 146.673 63.5694 146.464 63.7504C146.372 63.829 146.251 63.8912 146.101 63.9358C145.908 63.9925 145.665 64.0214 145.374 64.0214ZM156.827 64.1492C156.579 64.4655 156.253 64.7047 155.861 64.866C155.46 65.0286 155.03 65.1119 154.596 65.1104C154.165 65.1164 153.737 65.0446 153.331 64.8986C152.967 64.7659 152.634 64.5595 152.353 64.2922C152.246 64.1893 152.149 64.0781 152.061 63.96L151.989 63.8594C151.963 63.8214 151.939 63.7829 151.915 63.7435L151.882 63.6882C151.861 63.6512 151.84 63.6133 151.82 63.5748C151.794 63.524 151.769 63.4727 151.745 63.4197L151.714 63.3432C151.558 62.9519 151.481 62.5334 151.486 62.1117C151.486 61.6932 151.557 61.3058 151.707 60.9388C151.851 60.5709 152.059 60.2552 152.32 59.9904C152.581 59.7194 152.894 59.5137 153.247 59.3524C153.618 59.1889 154.021 59.1073 154.427 59.1132C154.889 59.1132 155.32 59.1714 155.712 59.2873C156.103 59.403 156.436 59.5968 156.709 59.8686L156.233 60.6745C156.137 60.5867 156.033 60.508 155.923 60.4392C155.869 60.4052 155.814 60.3734 155.757 60.3438C155.712 60.3211 155.667 60.2999 155.62 60.2794L155.533 60.2439L155.437 60.2091C155.157 60.1191 154.864 60.0737 154.57 60.0745C154.465 60.0745 154.363 60.0826 154.261 60.0986C154.111 60.1228 153.965 60.1652 153.82 60.2227C153.583 60.3181 153.366 60.4589 153.181 60.636C153.121 60.6949 153.064 60.7578 153.013 60.8237L152.967 60.8834C152.878 61.0069 152.803 61.14 152.744 61.2809C152.634 61.5314 152.581 61.8091 152.581 62.1186C152.581 62.4342 152.64 62.7181 152.751 62.9632C152.861 63.2145 153.012 63.4278 153.201 63.6081C153.39 63.7889 153.611 63.9237 153.866 64.0145C154.121 64.1045 154.388 64.1568 154.675 64.1568C154.887 64.1568 155.084 64.1311 155.269 64.0803C155.316 64.0675 155.362 64.053 155.407 64.0372C155.48 64.0123 155.551 63.9827 155.62 63.9494C155.891 63.8184 156.135 63.6369 156.338 63.415L156.827 64.1492ZM157.361 59.2358H162.644V60.2552H160.517V64.975H159.487V60.2552H157.361V59.2358ZM163.765 59.2373H164.796V59.9139C164.992 59.6809 165.272 59.4954 165.631 59.3403C165.99 59.1852 166.368 59.108 166.772 59.108C166.837 59.1063 166.902 59.108 166.967 59.1117C167.099 59.1193 167.229 59.1359 167.357 59.1616C167.538 59.198 167.716 59.2533 167.887 59.3267C168.209 59.4614 168.497 59.6666 168.728 59.9268C168.965 60.1941 169.147 60.505 169.263 60.8419C169.324 61.0143 169.37 61.1953 169.402 61.3852C169.435 61.5866 169.452 61.797 169.452 62.0165C169.452 62.4478 169.38 62.855 169.237 63.2342C169.094 63.615 168.891 63.9373 168.624 64.2157C168.352 64.4929 168.029 64.7139 167.672 64.8667C167.3 65.0211 166.889 65.1043 166.433 65.1043C166.126 65.1043 165.826 65.0725 165.54 65.0083C165.253 64.9439 165.005 64.847 164.796 64.7116V67.5291H163.765V59.2373ZM166.473 60.0683C166.127 60.0683 165.807 60.1463 165.514 60.3014C165.221 60.4558 164.979 60.6429 164.797 60.8614V63.7057C165.03 63.8623 165.288 63.9805 165.56 64.0547C165.807 64.1188 166.069 64.1506 166.349 64.1506C166.637 64.156 166.924 64.1008 167.19 63.9896C167.429 63.8919 167.645 63.7442 167.822 63.5573C168 63.3681 168.136 63.1442 168.221 62.8996C168.312 62.6416 168.364 62.3647 168.364 62.055C168.364 61.9899 168.362 61.9255 168.358 61.8628L168.35 61.7605L168.341 61.688L168.33 61.613L168.317 61.5411L168.298 61.4572C168.282 61.3882 168.263 61.3208 168.24 61.255C168.162 61.0106 168.038 60.8039 167.875 60.6232C167.712 60.4429 167.516 60.3075 167.282 60.2106C167.04 60.1137 166.772 60.0683 166.473 60.0683ZM176.326 59.2365H177.357V64.9757H176.326V59.2365ZM171.964 59.2365H170.933H170.927V64.9817H172.798C173.255 64.9817 173.633 64.9173 173.946 64.8024C174.259 64.6858 174.507 64.5314 174.689 64.3376C174.872 64.1439 175.009 63.9312 175.087 63.686C175.172 63.4416 175.211 63.1955 175.211 62.9375C175.211 62.6794 175.172 62.435 175.1 62.1958C175.029 61.9581 174.905 61.7447 174.729 61.5647C174.553 61.3837 174.318 61.2355 174.024 61.1257C173.73 61.0167 173.365 60.9583 172.915 60.9583H171.964V59.2365ZM172.721 64.0214H171.97V61.9188V61.9052H172.734C173.229 61.9052 173.588 61.996 173.803 62.1768C174.012 62.3578 174.122 62.6212 174.122 62.9701C174.122 63.3122 174.018 63.5694 173.809 63.7496C173.601 63.9312 173.235 64.0214 172.721 64.0214ZM182.3 62.0029L184.504 64.9757H183.24L181.537 62.6537L179.809 64.9757H178.609L180.8 62.0535L178.739 59.2358H180.005L181.576 61.4027L183.174 59.2358H184.374L182.3 62.0029ZM91.7674 72.0687H88.6045V76.8543H87.5737V71.115H92.7973V76.8543H91.7674V72.0687ZM98.647 72.133H96.6126L96.5467 73.1002C96.5017 73.6156 96.4465 74.0667 96.3776 74.4558C96.3367 74.6851 96.2913 74.8933 96.2406 75.0802C96.1033 75.5835 95.9337 75.9702 95.7385 76.2412C95.5432 76.512 95.3143 76.699 95.0531 76.7899C94.7838 76.8876 94.4989 76.9352 94.2122 76.9314L94.1339 75.9376C94.2448 75.9438 94.375 75.9187 94.5184 75.8543C94.6627 75.7901 94.8061 75.6479 94.9423 75.4358C95.0797 75.2156 95.2038 74.9061 95.3143 74.5066C95.4251 74.1002 95.4975 73.5717 95.536 72.9066L95.6409 71.1204H99.6778V76.8602H98.647V72.133ZM101.568 71.5079C101.823 71.3466 102.123 71.2181 102.456 71.1281C102.796 71.0341 103.146 70.9865 103.499 70.9865C104.321 70.9865 104.901 71.1915 105.227 71.5986C105.56 72.0052 105.723 72.5856 105.723 73.3335V76.8543H104.758V76.1125C104.588 76.332 104.353 76.5258 104.06 76.693C103.766 76.861 103.382 76.945 102.899 76.945C102.365 76.945 101.933 76.7899 101.608 76.4804C101.429 76.3115 101.3 76.1034 101.219 75.8575C101.152 75.6538 101.119 75.4252 101.119 75.1717C101.118 75.131 101.119 75.09 101.121 75.0491C101.126 74.9591 101.138 74.8706 101.157 74.7835C101.185 74.6479 101.229 74.5162 101.288 74.3907C101.395 74.1682 101.551 73.9722 101.744 73.8178C101.847 73.733 101.963 73.6603 102.092 73.5991C102.2 73.5476 102.317 73.5044 102.443 73.4689C102.716 73.3909 103.004 73.3463 103.31 73.3463C103.56 73.3493 103.808 73.3749 104.053 73.4235C104.147 73.44 104.239 73.4644 104.328 73.4953C104.48 73.5483 104.625 73.6218 104.758 73.7133C104.758 73.4492 104.744 73.2047 104.712 72.9784C104.694 72.8588 104.67 72.7483 104.637 72.6477C104.62 72.5962 104.601 72.5471 104.58 72.5009C104.564 72.4676 104.548 72.4351 104.53 72.4048C104.438 72.2496 104.308 72.1209 104.131 72.0369C104.017 71.9786 103.881 71.9385 103.72 71.9182L103.641 71.9098C103.577 71.9044 103.51 71.9015 103.44 71.9015C103.082 71.9015 102.781 71.9409 102.547 72.024C102.478 72.0482 102.41 72.0741 102.342 72.1005C102.176 72.1656 102.01 72.2383 101.843 72.3207L101.568 71.5079ZM103.265 76.0225C103.501 76.0225 103.71 75.9921 103.89 75.9285C103.998 75.89 104.096 75.84 104.184 75.7764C104.396 75.6365 104.589 75.4691 104.758 75.28V74.5512C104.4 74.2938 103.962 74.172 103.454 74.172C103.395 74.172 103.335 74.1742 103.276 74.1796C103.182 74.1887 103.089 74.2052 102.998 74.2287C102.847 74.2681 102.711 74.3256 102.6 74.4035C102.489 74.4807 102.391 74.5776 102.32 74.7002C102.247 74.8228 102.215 74.9584 102.215 75.1194C102.215 75.3897 102.306 75.6092 102.489 75.7764C102.672 75.9384 102.925 76.0225 103.265 76.0225ZM106.74 71.115H112.023V72.1338H109.896V76.8543H108.866V72.1345H106.74V71.115ZM117.302 76.6052C117.156 76.6809 117.001 76.7445 116.836 76.7959C116.445 76.9186 116.053 76.9835 115.668 76.9835C115.231 76.9889 114.796 76.9169 114.384 76.7702C113.999 76.6286 113.672 76.4281 113.405 76.164C113.138 75.8999 112.923 75.5835 112.779 75.2163C112.636 74.8479 112.557 74.4361 112.557 73.9843C112.554 73.5838 112.622 73.1865 112.76 72.8104C112.818 72.6462 112.893 72.4888 112.981 72.3397C113.082 72.1685 113.203 72.0082 113.34 71.863C113.605 71.589 113.922 71.3717 114.273 71.224C114.645 71.0689 115.068 70.9858 115.551 70.9858C115.91 70.9834 116.266 71.0492 116.601 71.1794C116.921 71.2983 117.214 71.4807 117.461 71.7145C117.707 71.9507 117.902 72.2336 118.036 72.5463C118.179 72.8686 118.251 73.2237 118.251 73.6164C118.251 73.8814 118.231 74.1076 118.186 74.3066H113.725C113.771 74.8486 113.972 75.2747 114.344 75.5774C114.716 75.8802 115.186 76.0284 115.753 76.0284C116.132 76.0284 116.477 75.9709 116.783 75.8552C117.09 75.7386 117.345 75.5971 117.534 75.4284L117.847 76.2284C117.681 76.3766 117.5 76.5023 117.302 76.6052ZM115.499 71.9401C114.964 71.9401 114.541 72.0824 114.221 72.3722C113.906 72.6568 113.704 73.0465 113.654 73.4689H117.175C117.149 72.9912 116.993 72.6174 116.7 72.3465C116.406 72.0824 116.008 71.9401 115.499 71.9401ZM120.058 71.115H118.753L120.885 73.8814L118.656 76.8543H119.92L122.046 73.8822L120.058 71.115ZM123.331 71.115H122.301V76.8543H123.331V71.115ZM124.746 73.8814L127.016 76.8543H125.738L123.586 73.8814L125.587 71.1143H126.866L124.746 73.8814ZM132.735 76.2284C132.448 76.4856 132.116 76.6733 131.725 76.7959C131.347 76.9169 130.954 76.9805 130.557 76.9835C130.12 76.9889 129.685 76.9169 129.273 76.7702C128.887 76.6286 128.562 76.4281 128.294 76.164C128.027 75.8999 127.812 75.5835 127.668 75.2163C127.525 74.8479 127.447 74.4361 127.447 73.9843C127.443 73.5838 127.511 73.1865 127.649 72.8104C127.774 72.4578 127.972 72.1345 128.229 71.863C128.494 71.589 128.811 71.3717 129.162 71.224C129.534 71.0689 129.958 70.9858 130.44 70.9858C130.799 70.9834 131.155 71.0492 131.49 71.1794C131.81 71.2983 132.102 71.4807 132.351 71.7145C132.596 71.9507 132.791 72.2336 132.924 72.5463C133.069 72.8686 133.14 73.2237 133.14 73.6164C133.14 73.8814 133.12 74.1076 133.075 74.3066H128.614C128.66 74.8486 128.862 75.2747 129.233 75.5774C129.605 75.8802 130.075 76.0284 130.642 76.0284C131.02 76.0284 131.366 75.9709 131.673 75.8552C131.979 75.7386 132.233 75.5971 132.422 75.4284L132.735 76.2284ZM130.389 71.9401C129.854 71.9401 129.43 72.0824 129.11 72.3722C128.794 72.6568 128.592 73.0465 128.542 73.4689H132.064C132.038 72.9912 131.882 72.6174 131.588 72.3465C131.295 72.0824 130.891 71.9401 130.389 71.9401ZM136.606 68.9234C136.772 69.099 137.011 69.1868 137.321 69.1868C137.895 69.1868 138.214 68.8514 138.26 68.1809H139.225C139.225 68.4381 139.179 68.6704 139.088 68.8899C138.997 69.1094 138.866 69.2965 138.704 69.4509C138.631 69.5175 138.553 69.5794 138.469 69.6354C138.359 69.7096 138.237 69.7732 138.104 69.8248C137.971 69.8793 137.83 69.917 137.679 69.9405C137.563 69.9579 137.442 69.9663 137.314 69.9663C137.191 69.9663 137.074 69.9594 136.962 69.9458C136.785 69.9239 136.622 69.8845 136.473 69.8248C136.232 69.7286 136.023 69.606 135.86 69.4509C135.762 69.3577 135.677 69.2517 135.607 69.1345C135.562 69.0581 135.522 68.9762 135.488 68.8899C135.441 68.7681 135.406 68.6418 135.384 68.5094C135.367 68.4041 135.358 68.2951 135.358 68.1809H136.33C136.355 68.5086 136.447 68.756 136.606 68.9234ZM135.566 76.8543H134.536V71.1143H135.566V75.3897L138.918 71.1143H139.949V76.8543H138.918V72.5781L135.566 76.8543Z" fill="#29626C"/>
</g>
<defs>
<clipPath id="clip0_306_15">
<rect width="186" height="93" fill="white"/>
</clipPath>
</defs>
</svg>
