<svg width="106" height="63" viewBox="0 0 106 63" fill="none" xmlns="http://www.w3.org/2000/svg">
<g clip-path="url(#clip0_308_34)">
<path d="M5.4359 0H100.564C103.567 0 106 2.2554 106 5.04V57.96C106 60.7446 103.567 63 100.564 63H5.4359C2.43256 63 0 60.7446 0 57.96V5.04C0 2.2554 2.43256 0 5.4359 0Z" fill="#29626C"/>
<path d="M73.9419 30.3027V43.9107H82.0957V35.8467H91.3368C95.2234 35.8215 98.5257 33.5157 99.776 30.3027H73.9419Z" fill="#1A4248"/>
<path d="M72.8545 19.0889C73.3301 24.6455 79.0106 29.0429 85.9414 29.0429H100.116C100.224 28.5389 100.279 28.0097 100.279 27.4679C100.279 22.8563 96.2696 19.1267 91.3094 19.0889H72.8545Z" fill="#1F4B53"/>
<path d="M60.7869 28.9043C60.882 28.7531 61.0315 28.6649 61.2218 28.6649C61.4935 28.6649 61.6974 28.8665 61.711 29.1059V43.7849H69.8648V19.0889H61.711C60.6782 19.1267 59.5094 19.8197 59.0746 20.6891L52.5923 33.5915C52.5787 33.6419 52.5515 33.6923 52.5243 33.7427C52.4292 33.8687 52.2661 33.9569 52.0759 33.9569C51.7769 33.9569 51.5323 33.7301 51.5323 33.4529V19.0889H43.3784V43.7849H51.5323C52.5515 43.7345 53.693 43.0415 54.1279 42.1847L60.7869 28.9421C60.7733 28.9295 60.7869 28.9169 60.7869 28.9043Z" fill="#1A4248"/>
<path d="M30.3459 29.3326L25.5759 43.7848H19.7051L14.9487 29.32C14.9079 29.0932 14.6905 28.9168 14.4187 28.9168C14.1197 28.9168 13.8887 29.1436 13.8887 29.4082V43.7722H5.73486V19.0762H14.8128C16.3077 19.0762 17.8841 20.1598 18.319 21.4828L22.2872 33.5158C22.491 34.1206 22.8036 34.108 23.0074 33.5158L26.9756 21.4828C27.4105 20.1472 28.9869 19.0762 30.4818 19.0762H39.5597V43.7722H31.4059V29.4082V29.3956C31.4059 29.1184 31.1613 28.9042 30.8759 28.9042C30.6041 28.9168 30.3867 29.0932 30.3459 29.3326Z" fill="#1A4248"/>
</g>
<defs>
<clipPath id="clip0_308_34">
<rect width="106" height="63" fill="white"/>
</clipPath>
</defs>
</svg>
