<svg width="140" height="124" viewBox="0 0 140 124" fill="none" xmlns="http://www.w3.org/2000/svg">
<g clip-path="url(#clip0_306_9)">
<path d="M129.628 81.4678L128.316 75.6553H113.651L111.318 81.4265L99.5633 81.4471C105.159 69.5284 110.767 57.614 116.387 45.7041C117.343 43.684 119.041 42.6558 121.543 42.6661C123.457 42.6816 126.578 42.6816 130.912 42.6713L140 81.4523L129.628 81.4678ZM116.953 67.6935H126.403L122.873 53.1235L116.953 67.6935ZM41.1833 42.661L53.0017 42.6713L34.7317 81.473L22.7675 81.4626C19.759 71.2136 16.7878 60.956 13.8542 50.69C13.2708 48.644 12.1158 47.2128 9.89333 46.536C7.91583 45.9315 4.62 45.0015 0 43.7356V42.6765H18.8825C22.1492 42.6765 24.0567 44.0766 24.6692 46.9493C25.2875 49.8271 26.8392 57.1535 29.3358 68.9283L41.1833 42.661ZM69.2417 42.6713L59.8967 81.4626L48.65 81.4523L57.9833 42.661L69.2417 42.6713ZM92.05 41.9531C95.4158 41.9531 99.6567 42.8831 102.095 43.7356L100.123 51.7801C97.9183 50.9948 94.29 49.9356 91.2392 49.9718C86.8058 50.039 84.0642 51.6871 84.0642 53.2681C84.0642 55.8411 88.8242 57.138 93.7242 59.9486C99.3183 63.152 100.053 66.0298 99.9833 69.1556C99.9075 75.645 93.7242 82.0465 80.6808 82.0465C74.7308 81.969 72.5842 81.5246 67.7308 80.0005L69.7842 71.6046C74.725 73.4388 76.8192 74.0226 81.0425 74.0226C84.91 74.0226 88.2292 72.638 88.2583 70.2251C88.2817 68.5098 87.0917 67.6573 82.7517 65.539C78.4117 63.4155 72.3217 60.4756 72.4033 54.5753C72.5025 47.0216 80.5817 41.9531 92.0558 41.9531H92.05Z" fill="#29626C"/>
</g>
<defs>
<clipPath id="clip0_306_9">
<rect width="140" height="124" fill="white"/>
</clipPath>
</defs>
</svg>
